<svg viewBox="0 0 984 982" xmlns="http://www.w3.org/2000/svg">
<g transform="translate(0,0)">
<rect width="240" height="135" fill="#111827" rx="6"/>
<rect x="0.5" y="0.5" width="239" height="134" fill="none" stroke="#374151" stroke-width="1" rx="6"/>
<rect x="0" y="0" width="240" height="3" fill="#F97316" rx="6"/>
<rect x="0" y="1.5" width="240" height="1.5" fill="#F97316"/>
<rect x="24.0" y="43.2" width="192.0" height="18.9" fill="#1f2937" rx="4"/><text x="120.0" y="53.6" text-anchor="middle" dominant-baseline="central" font-family="Arial" font-size="6.7" font-weight="bold" fill="#e5e7eb">Presentation Title</text><rect x="24.0" y="60.1" width="67.2" height="2.5" fill="#F97316" rx="1"/>
<rect x="36.0" y="67.5" width="168.0" height="10.8" fill="#1f2937" rx="3" opacity="0.85"/><text x="120.0" y="73.4" text-anchor="middle" dominant-baseline="central" font-family="Arial" font-size="4.2" fill="#e5e7eb">Subtitle</text>
<text x="232" y="129" text-anchor="end" font-family="monospace" font-size="7.5" fill="#9ca3af" opacity="0.45">cover · single · single_uniform · Q:8.5</text>
</g>
<text x="120" y="149" text-anchor="middle" font-family="monospace" font-size="9" fill="#6b7280">cover (Q:8.5)</text>
<g transform="translate(248,0)">
<rect width="240" height="135" fill="#111827" rx="6"/>
<rect x="0.5" y="0.5" width="239" height="134" fill="none" stroke="#374151" stroke-width="1" rx="6"/>
<rect x="0" y="0" width="240" height="3" fill="#F97316" rx="6"/>
<rect x="0" y="1.5" width="240" height="1.5" fill="#F97316"/>
<rect x="12.0" y="40.5" width="132.0" height="18.9" fill="#1f2937" rx="4"/><text x="78.0" y="50.9" text-anchor="middle" dominant-baseline="central" font-family="Arial" font-size="4.6" font-weight="bold" fill="#e5e7eb">Title</text><rect x="12.0" y="57.4" width="46.2" height="2.5" fill="#F97316" rx="1"/>
<rect x="12.0" y="64.8" width="120.0" height="10.8" fill="#1f2937" rx="3" opacity="0.85"/><text x="72.0" y="70.7" text-anchor="middle" dominant-baseline="central" font-family="Arial" font-size="3.0" fill="#e5e7eb">Author</text>
<rect x="148.8" y="13.5" width="84.0" height="108.0" fill="#111827" stroke="#374151" stroke-width="0.8" rx="5"/>
<circle cx="211.8" cy="43.7" r="6.7" fill="#F97316" opacity="0.25"/>
<polygon points="153,105 170,51 191,105" fill="#9ca3af" opacity="0.15"/>
<polygon points="178,105 199,62 220,105" fill="#9ca3af" opacity="0.1"/>
<text x="190.8" y="112.9" text-anchor="middle" font-family="monospace" font-size="7" fill="#9ca3af" opacity="0.3">image</text>
<text x="232" y="129" text-anchor="end" font-family="monospace" font-size="7.5" fill="#9ca3af" opacity="0.45">cover · columns · columns_uniform · Q:8.0</text>
</g>
<text x="368" y="149" text-anchor="middle" font-family="monospace" font-size="9" fill="#6b7280">cover (Q:8.0)</text>
<g transform="translate(496,0)">
<rect width="240" height="135" fill="#111827" rx="6"/>
<rect x="0.5" y="0.5" width="239" height="134" fill="none" stroke="#374151" stroke-width="1" rx="6"/>
<rect x="0" y="0" width="240" height="3" fill="#F97316" rx="6"/>
<rect x="0" y="1.5" width="240" height="1.5" fill="#F97316"/>
<rect x="12.0" y="4.0" width="216.0" height="13.5" fill="#1f2937" rx="4"/><text x="120.0" y="11.5" text-anchor="middle" dominant-baseline="central" font-family="Arial" font-size="7.4" font-weight="bold" fill="#e5e7eb">Key Takeaways</text><rect x="12.0" y="15.6" width="75.6" height="2.5" fill="#F97316" rx="1"/>
<rect x="12.0" y="23.0" width="67.2" height="98.5" fill="#0F2137" stroke="#374151" stroke-width="0.8" rx="5"/>
<rect x="12.0" y="27.0" width="3" height="90.5" fill="#F97316" rx="1.5" opacity="0.6"/>
<text x="24.0" y="41.4" font-family="Arial" font-size="1.7" fill="#1f2937">Revenue exceeded targets</text>
<rect x="86.4" y="23.0" width="67.2" height="98.5" fill="#1f2937" stroke="#374151" stroke-width="0.8" rx="5"/>
<rect x="86.4" y="27.0" width="3" height="90.5" fill="#F97316" rx="1.5" opacity="0.6"/>
<text x="98.4" y="41.4" font-family="Arial" font-size="1.7" fill="#e5e7eb">Margin improved</text>
<rect x="160.8" y="23.0" width="67.2" height="98.5" fill="#0F2137" stroke="#374151" stroke-width="0.8" rx="5"/>
<rect x="160.8" y="27.0" width="3" height="90.5" fill="#F97316" rx="1.5" opacity="0.6"/>
<text x="172.8" y="41.4" font-family="Arial" font-size="1.7" fill="#1f2937">Growth on track</text>
<text x="232" y="129" text-anchor="end" font-family="monospace" font-size="7.5" fill="#9ca3af" opacity="0.45">executive_summary · columns · columns_alternating_dark_light · Q:8.0</text>
</g>
<text x="616" y="149" text-anchor="middle" font-family="monospace" font-size="9" fill="#6b7280">executive_summary (Q:8.0)</text>
<g transform="translate(744,0)">
<rect width="240" height="135" fill="#111827" rx="6"/>
<rect x="0.5" y="0.5" width="239" height="134" fill="none" stroke="#374151" stroke-width="1" rx="6"/>
<rect x="0" y="0" width="240" height="3" fill="#F97316" rx="6"/>
<rect x="0" y="1.5" width="240" height="1.5" fill="#F97316"/>
<rect x="12.0" y="4.0" width="216.0" height="13.5" fill="#1f2937" rx="4"/><text x="120.0" y="11.5" text-anchor="middle" dominant-baseline="central" font-family="Arial" font-size="7.4" font-weight="bold" fill="#e5e7eb">Executive Summary</text><rect x="12.0" y="15.6" width="75.6" height="2.5" fill="#F97316" rx="1"/>
<rect x="12.0" y="21.6" width="216.0" height="101.2" fill="#0F2137" stroke="#374151" stroke-width="0.8" rx="5"/>
<rect x="12.0" y="25.6" width="3" height="93.2" fill="#F97316" rx="1.5" opacity="0.6"/>
<text x="25.0" y="40.6" font-family="Arial" font-size="5.4" fill="#1f2937">Key insights from this period</text>
<text x="232" y="129" text-anchor="end" font-family="monospace" font-size="7.5" fill="#9ca3af" opacity="0.45">executive_summary · stacked · stacked_uniform · Q:7.5</text>
</g>
<text x="864" y="149" text-anchor="middle" font-family="monospace" font-size="9" fill="#6b7280">executive_summary (Q:7.5)</text>
<g transform="translate(0,165)">
<rect width="240" height="135" fill="#111827" rx="6"/>
<rect x="0.5" y="0.5" width="239" height="134" fill="none" stroke="#374151" stroke-width="1" rx="6"/>
<rect x="0" y="0" width="240" height="3" fill="#F97316" rx="6"/>
<rect x="0" y="1.5" width="240" height="1.5" fill="#F97316"/>
<rect x="12.0" y="4.0" width="216.0" height="13.5" fill="#1f2937" rx="4"/><text x="120.0" y="11.5" text-anchor="middle" dominant-baseline="central" font-family="Arial" font-size="7.4" font-weight="bold" fill="#e5e7eb">Dashboard</text><rect x="12.0" y="15.6" width="75.6" height="2.5" fill="#F97316" rx="1"/>
<rect x="12.0" y="24.3" width="48.0" height="37.8" fill="#0F2137" stroke="#374151" stroke-width="0.8" rx="6"/>
<rect x="12.0" y="24.3" width="48.0" height="3.5" fill="#F97316" rx="6"/>
<rect x="12.0" y="25.8" width="48.0" height="2" fill="#F97316"/>
<circle cx="49.4" cy="30.0" r="2.6" fill="#F97316" opacity="0.12"/>
<text x="49.4" y="32.0" text-anchor="middle" font-size="5" fill="#F97316" opacity="0.4">dollar</text>
<text x="36.0" y="35.6" text-anchor="middle" dominant-baseline="central" font-family="Arial" font-size="9.6" font-weight="bold" fill="#1f2937">$12.4M</text>
<rect x="24.0" y="40.0" width="24.0" height="1.5" fill="#F97316" rx="0.75" opacity="0.25"/>
<text x="36.0" y="42.4" text-anchor="middle" font-family="Arial" font-size="1.1" fill="#F97316" letter-spacing="1.5">REVENUE</text>
<text x="36.0" y="58.3" text-anchor="middle" font-size="5.5" fill="#F97316" font-style="italic" opacity="0.5">+8% vs plan</text>
<polyline points="25.2,55.2 28.8,54.2 32.4,55.3 36.0,53.2 39.6,54.1 43.2,54.2 46.8,51.5" fill="none" stroke="#F97316" stroke-width="1" stroke-linecap="round" opacity="0.3"/>
<path d="M54,57L54,51L51,54M54,51L57,54" stroke="#059669" stroke-width="1.5" fill="none" stroke-linecap="round"/>
<rect x="67.2" y="24.3" width="48.0" height="37.8" fill="#1f2937" stroke="#374151" stroke-width="0.8" rx="6"/>
<rect x="67.2" y="24.3" width="48.0" height="3.5" fill="#F97316" rx="6"/>
<rect x="67.2" y="25.8" width="48.0" height="2" fill="#F97316"/>
<circle cx="104.6" cy="30.0" r="2.6" fill="#F97316" opacity="0.12"/>
<text x="104.6" y="32.0" text-anchor="middle" font-size="5" fill="#9ca3af" opacity="0.4">trendi</text>
<text x="91.2" y="35.6" text-anchor="middle" dominant-baseline="central" font-family="Arial" font-size="9.6" font-weight="bold" fill="#e5e7eb">24.1%</text>
<rect x="79.2" y="40.0" width="24.0" height="1.5" fill="#9ca3af" rx="0.75" opacity="0.25"/>
<text x="91.2" y="42.4" text-anchor="middle" font-family="Arial" font-size="1.1" fill="#9ca3af" letter-spacing="1.5">OP. MARGIN</text>
<text x="91.2" y="58.3" text-anchor="middle" font-size="5.5" fill="#9ca3af" font-style="italic" opacity="0.5">+180bps YoY</text>
<polyline points="80.4,55.3 84.0,54.2 87.6,55.3 91.2,53.2 94.8,53.9 98.4,54.2 102.0,51.5" fill="none" stroke="#F97316" stroke-width="1" stroke-linecap="round" opacity="0.3"/>
<path d="M109,57L109,51L106,54M109,51L112,54" stroke="#059669" stroke-width="1.5" fill="none" stroke-linecap="round"/>
<rect x="122.4" y="24.3" width="48.0" height="37.8" fill="#0F2137" stroke="#374151" stroke-width="0.8" rx="6"/>
<rect x="122.4" y="24.3" width="48.0" height="3.5" fill="#F97316" rx="6"/>
<rect x="122.4" y="25.8" width="48.0" height="2" fill="#F97316"/>
<circle cx="159.8" cy="30.0" r="2.6" fill="#F97316" opacity="0.12"/>
<text x="159.8" y="32.0" text-anchor="middle" font-size="5" fill="#F97316" opacity="0.4">users</text>
<text x="146.4" y="35.6" text-anchor="middle" dominant-baseline="central" font-family="Arial" font-size="9.6" font-weight="bold" fill="#1f2937">72</text>
<rect x="134.4" y="40.0" width="24.0" height="1.5" fill="#F97316" rx="0.75" opacity="0.25"/>
<text x="146.4" y="42.4" text-anchor="middle" font-family="Arial" font-size="1.1" fill="#F97316" letter-spacing="1.5">CUSTOMERS</text>
<text x="146.4" y="58.3" text-anchor="middle" font-size="5.5" fill="#F97316" font-style="italic" opacity="0.5">+89 net new</text>
<polyline points="135.6,54.9 139.2,54.1 142.8,55.3 146.4,53.2 150.0,54.5 153.6,54.1 157.2,51.5" fill="none" stroke="#F97316" stroke-width="1" stroke-linecap="round" opacity="0.3"/>
<path d="M164,57L164,51L161,54M164,51L167,54" stroke="#059669" stroke-width="1.5" fill="none" stroke-linecap="round"/>
<rect x="177.6" y="24.3" width="48.0" height="37.8" fill="#F97316" stroke="#374151" stroke-width="0.8" rx="6"/>
<rect x="177.6" y="24.3" width="48.0" height="3.5" fill="#F97316" rx="6"/>
<rect x="177.6" y="25.8" width="48.0" height="2" fill="#F97316"/>
<circle cx="215.0" cy="30.0" r="2.6" fill="#F97316" opacity="0.12"/>
<text x="215.0" y="32.0" text-anchor="middle" font-size="5" fill="#1f2937" opacity="0.4">target</text>
<text x="201.6" y="35.6" text-anchor="middle" dominant-baseline="central" font-family="Arial" font-size="9.6" font-weight="bold" fill="#1f2937">340</text>
<rect x="189.6" y="40.0" width="24.0" height="1.5" fill="#1f2937" rx="0.75" opacity="0.25"/>
<text x="201.6" y="42.4" text-anchor="middle" font-family="Arial" font-size="1.1" fill="#1f2937" letter-spacing="1.5">PIPELINE</text>
<text x="201.6" y="58.3" text-anchor="middle" font-size="5.5" fill="#1f2937" font-style="italic" opacity="0.5">+34% QoQ</text>
<polyline points="190.8,55.3 194.4,54.1 198.0,55.2 201.6,53.2 205.2,53.8 208.8,54.1 212.4,51.5" fill="none" stroke="#F97316" stroke-width="1" stroke-linecap="round" opacity="0.3"/>
<path d="M219,57L219,51L216,54M219,51L222,54" stroke="#059669" stroke-width="1.5" fill="none" stroke-linecap="round"/>
<rect x="12.0" y="70.2" width="216.0" height="54.0" fill="#0F2137" stroke="#374151" stroke-width="0.8" rx="5"/>
<rect x="12.0" y="74.2" width="3" height="46.0" fill="#F97316" rx="1.5" opacity="0.6"/>
<text x="25.0" y="83.8" font-family="Arial" font-size="5.4" fill="#1f2937">All metrics positive</text>
<text x="232" y="129" text-anchor="end" font-family="monospace" font-size="7.5" fill="#9ca3af" opacity="0.45">kpi_dashboard · grid · grid_alternating_dark_light · Q:9.0</text>
</g>
<text x="120" y="314" text-anchor="middle" font-family="monospace" font-size="9" fill="#6b7280">kpi_dashboard (Q:9.0)</text>
<g transform="translate(248,165)">
<rect width="240" height="135" fill="#111827" rx="6"/>
<rect x="0.5" y="0.5" width="239" height="134" fill="none" stroke="#374151" stroke-width="1" rx="6"/>
<rect x="0" y="0" width="240" height="3" fill="#F97316" rx="6"/>
<rect x="0" y="1.5" width="240" height="1.5" fill="#F97316"/>
<rect x="12.0" y="4.0" width="216.0" height="13.5" fill="#1f2937" rx="4"/><text x="120.0" y="11.5" text-anchor="middle" dominant-baseline="central" font-family="Arial" font-size="7.4" font-weight="bold" fill="#e5e7eb">Key Metrics</text><rect x="12.0" y="15.6" width="75.6" height="2.5" fill="#F97316" rx="1"/>
<rect x="12.0" y="24.3" width="67.2" height="47.2" fill="#0F2137" stroke="#374151" stroke-width="0.8" rx="6"/>
<rect x="12.0" y="24.3" width="67.2" height="3.5" fill="#F97316" rx="6"/>
<rect x="12.0" y="25.8" width="67.2" height="2" fill="#F97316"/>
<circle cx="64.4" cy="31.4" r="3.3" fill="#F97316" opacity="0.12"/>
<text x="64.4" y="33.4" text-anchor="middle" font-size="5" fill="#F97316" opacity="0.4">dollar</text>
<text x="45.6" y="38.5" text-anchor="middle" dominant-baseline="central" font-family="Arial" font-size="13.4" font-weight="bold" fill="#1f2937">$8.2M</text>
<rect x="28.8" y="44.5" width="33.6" height="1.5" fill="#F97316" rx="0.75" opacity="0.25"/>
<text x="45.6" y="47.9" text-anchor="middle" font-family="Arial" font-size="1.5" fill="#F97316" letter-spacing="1.5">REVENUE</text>
<polyline points="30.5,63.0 35.5,61.5 40.6,62.8 45.6,60.4 50.6,60.8 55.7,61.5 60.7,58.3" fill="none" stroke="#F97316" stroke-width="1" stroke-linecap="round" opacity="0.3"/>
<path d="M70,65L70,59L67,62M70,59L73,62" stroke="#059669" stroke-width="1.5" fill="none" stroke-linecap="round"/>
<rect x="86.4" y="24.3" width="67.2" height="47.2" fill="#1f2937" stroke="#374151" stroke-width="0.8" rx="6"/>
<rect x="86.4" y="24.3" width="67.2" height="3.5" fill="#F97316" rx="6"/>
<rect x="86.4" y="25.8" width="67.2" height="2" fill="#F97316"/>
<circle cx="138.8" cy="31.4" r="3.3" fill="#F97316" opacity="0.12"/>
<text x="138.8" y="33.4" text-anchor="middle" font-size="5" fill="#9ca3af" opacity="0.4">percen</text>
<text x="120.0" y="38.5" text-anchor="middle" dominant-baseline="central" font-family="Arial" font-size="13.4" font-weight="bold" fill="#e5e7eb">18.7%</text>
<rect x="103.2" y="44.5" width="33.6" height="1.5" fill="#9ca3af" rx="0.75" opacity="0.25"/>
<text x="120.0" y="47.9" text-anchor="middle" font-family="Arial" font-size="1.5" fill="#9ca3af" letter-spacing="1.5">MARGIN</text>
<polyline points="104.9,63.0 109.9,61.6 115.0,62.9 120.0,60.4 125.0,60.9 130.1,61.6 135.1,58.3" fill="none" stroke="#F97316" stroke-width="1" stroke-linecap="round" opacity="0.3"/>
<path d="M145,65L145,59L142,62M145,59L148,62" stroke="#059669" stroke-width="1.5" fill="none" stroke-linecap="round"/>
<rect x="160.8" y="24.3" width="67.2" height="47.2" fill="#0F2137" stroke="#374151" stroke-width="0.8" rx="6"/>
<rect x="160.8" y="24.3" width="67.2" height="3.5" fill="#F97316" rx="6"/>
<rect x="160.8" y="25.8" width="67.2" height="2" fill="#F97316"/>
<circle cx="213.2" cy="31.4" r="3.3" fill="#F97316" opacity="0.12"/>
<text x="213.2" y="33.4" text-anchor="middle" font-size="5" fill="#F97316" opacity="0.4">star</text>
<text x="194.4" y="38.5" text-anchor="middle" dominant-baseline="central" font-family="Arial" font-size="13.4" font-weight="bold" fill="#1f2937">94%</text>
<rect x="177.6" y="44.5" width="33.6" height="1.5" fill="#F97316" rx="0.75" opacity="0.25"/>
<text x="194.4" y="47.9" text-anchor="middle" font-family="Arial" font-size="1.5" fill="#F97316" letter-spacing="1.5">SATISFACTION</text>
<polyline points="179.3,63.0 184.3,61.5 189.4,62.8 194.4,60.4 199.4,60.8 204.5,61.5 209.5,58.3" fill="none" stroke="#F97316" stroke-width="1" stroke-linecap="round" opacity="0.3"/>
<text x="232" y="129" text-anchor="end" font-family="monospace" font-size="7.5" fill="#9ca3af" opacity="0.45">kpi_dashboard · columns · columns_alternating_dark_light · Q:8.5</text>
</g>
<text x="368" y="314" text-anchor="middle" font-family="monospace" font-size="9" fill="#6b7280">kpi_dashboard (Q:8.5)</text>
<g transform="translate(496,165)">
<rect width="240" height="135" fill="#111827" rx="6"/>
<rect x="0.5" y="0.5" width="239" height="134" fill="none" stroke="#374151" stroke-width="1" rx="6"/>
<rect x="0" y="0" width="240" height="3" fill="#F97316" rx="6"/>
<rect x="0" y="1.5" width="240" height="1.5" fill="#F97316"/>
<rect x="12.0" y="4.0" width="216.0" height="13.5" fill="#1f2937" rx="4"/><text x="120.0" y="11.5" text-anchor="middle" dominant-baseline="central" font-family="Arial" font-size="7.4" font-weight="bold" fill="#e5e7eb">Option Comparison</text><rect x="12.0" y="15.6" width="75.6" height="2.5" fill="#F97316" rx="1"/>
<rect x="12.0" y="23.0" width="67.2" height="101.2" fill="#0F2137" stroke="#374151" stroke-width="0.8" rx="5"/>
<rect x="16.0" y="23.0" width="59.2" height="3" fill="#F97316" rx="1.5" opacity="0.6"/>
<text x="24.0" y="41.9" font-family="Arial" font-size="1.7" fill="#1f2937">Option A</text>
<rect x="86.4" y="23.0" width="67.2" height="101.2" fill="#1f2937" stroke="#374151" stroke-width="0.8" rx="5"/>
<rect x="90.4" y="23.0" width="59.2" height="3" fill="#F97316" rx="1.5" opacity="0.6"/>
<text x="98.4" y="41.9" font-family="Arial" font-size="1.7" fill="#e5e7eb">Option B</text>
<rect x="160.8" y="23.0" width="67.2" height="101.2" fill="#0F2137" stroke="#374151" stroke-width="0.8" rx="5"/>
<rect x="164.8" y="23.0" width="59.2" height="3" fill="#F97316" rx="1.5" opacity="0.6"/>
<text x="172.8" y="41.9" font-family="Arial" font-size="1.7" fill="#1f2937">Option C</text>
<text x="232" y="129" text-anchor="end" font-family="monospace" font-size="7.5" fill="#9ca3af" opacity="0.45">comparison_columns · columns · columns_alternating_dark_light · Q:8.0</text>
</g>
<text x="616" y="314" text-anchor="middle" font-family="monospace" font-size="9" fill="#6b7280">comparison_columns (Q:8.0)</text>
<g transform="translate(744,165)">
<rect width="240" height="135" fill="#111827" rx="6"/>
<rect x="0.5" y="0.5" width="239" height="134" fill="none" stroke="#374151" stroke-width="1" rx="6"/>
<rect x="0" y="0" width="240" height="3" fill="#F97316" rx="6"/>
<rect x="0" y="1.5" width="240" height="1.5" fill="#F97316"/>
<rect x="12.0" y="4.0" width="216.0" height="13.5" fill="#1f2937" rx="4"/><text x="120.0" y="11.5" text-anchor="middle" dominant-baseline="central" font-family="Arial" font-size="7.4" font-weight="bold" fill="#e5e7eb">Current vs Proposed</text><rect x="12.0" y="15.6" width="75.6" height="2.5" fill="#F97316" rx="1"/>
<rect x="12.0" y="23.0" width="103.2" height="101.2" fill="#0F2137" stroke="#374151" stroke-width="0.8" rx="5"/>
<rect x="12.0" y="27.0" width="3" height="93.2" fill="#F97316" rx="1.5" opacity="0.6"/>
<text x="24.0" y="41.9" font-family="Arial" font-size="2.6" fill="#1f2937">Current</text>
<rect x="124.8" y="23.0" width="103.2" height="101.2" fill="#F97316" stroke="#374151" stroke-width="0.8" rx="5"/>
<rect x="124.8" y="27.0" width="3" height="93.2" fill="#F97316" rx="1.5" opacity="0.6"/>
<text x="136.8" y="41.9" font-family="Arial" font-size="2.6" fill="#1f2937">Proposed</text>
<text x="232" y="129" text-anchor="end" font-family="monospace" font-size="7.5" fill="#9ca3af" opacity="0.45">comparison_columns · columns · columns_uniform · Q:7.5</text>
</g>
<text x="864" y="314" text-anchor="middle" font-family="monospace" font-size="9" fill="#6b7280">comparison_columns (Q:7.5)</text>
<g transform="translate(0,330)">
<rect width="240" height="135" fill="#111827" rx="6"/>
<rect x="0.5" y="0.5" width="239" height="134" fill="none" stroke="#374151" stroke-width="1" rx="6"/>
<rect x="0" y="0" width="240" height="3" fill="#F97316" rx="6"/>
<rect x="0" y="1.5" width="240" height="1.5" fill="#F97316"/>
<rect x="12.0" y="4.0" width="216.0" height="13.5" fill="#1f2937" rx="4"/><text x="120.0" y="11.5" text-anchor="middle" dominant-baseline="central" font-family="Arial" font-size="7.4" font-weight="bold" fill="#e5e7eb">Process</text><rect x="12.0" y="15.6" width="75.6" height="2.5" fill="#F97316" rx="1"/>
<rect x="7.2" y="29.7" width="52.8" height="87.8" fill="#0F2137" stroke="#374151" stroke-width="0.8" rx="5"/>
<rect x="11.2" y="29.7" width="44.8" height="3" fill="#F97316" rx="1.5" opacity="0.6"/>
<text x="19.2" y="46.2" font-family="Arial" font-size="1.3" fill="#1f2937">Step 1</text>
<rect x="64.8" y="29.7" width="52.8" height="87.8" fill="#1f2937" stroke="#374151" stroke-width="0.8" rx="5"/>
<rect x="68.8" y="29.7" width="44.8" height="3" fill="#F97316" rx="1.5" opacity="0.6"/>
<text x="76.8" y="46.2" font-family="Arial" font-size="1.3" fill="#e5e7eb">Step 2</text>
<rect x="122.4" y="29.7" width="52.8" height="87.8" fill="#0F2137" stroke="#374151" stroke-width="0.8" rx="5"/>
<rect x="126.4" y="29.7" width="44.8" height="3" fill="#F97316" rx="1.5" opacity="0.6"/>
<text x="134.4" y="46.2" font-family="Arial" font-size="1.3" fill="#1f2937">Step 3</text>
<rect x="180.0" y="29.7" width="52.8" height="87.8" fill="#F97316" stroke="#374151" stroke-width="0.8" rx="5"/>
<rect x="184.0" y="29.7" width="44.8" height="3" fill="#F97316" rx="1.5" opacity="0.6"/>
<text x="192.0" y="46.2" font-family="Arial" font-size="1.3" fill="#1f2937">Step 4</text>
<text x="232" y="129" text-anchor="end" font-family="monospace" font-size="7.5" fill="#9ca3af" opacity="0.45">linear_process · columns · columns_numbered_steps · Q:7.5</text>
</g>
<text x="120" y="479" text-anchor="middle" font-family="monospace" font-size="9" fill="#6b7280">linear_process (Q:7.5)</text>
<g transform="translate(248,330)">
<rect width="240" height="135" fill="#111827" rx="6"/>
<rect x="0.5" y="0.5" width="239" height="134" fill="none" stroke="#374151" stroke-width="1" rx="6"/>
<rect x="0" y="0" width="240" height="3" fill="#F97316" rx="6"/>
<rect x="0" y="1.5" width="240" height="1.5" fill="#F97316"/>
<rect x="12.0" y="4.0" width="216.0" height="13.5" fill="#1f2937" rx="4"/><text x="120.0" y="11.5" text-anchor="middle" dominant-baseline="central" font-family="Arial" font-size="7.4" font-weight="bold" fill="#e5e7eb">2026 Roadmap</text><rect x="12.0" y="15.6" width="75.6" height="2.5" fill="#F97316" rx="1"/>
<rect x="12.0" y="24.3" width="48.0" height="33.8" fill="#0F2137" stroke="#374151" stroke-width="0.8" rx="5"/>
<rect x="16.0" y="24.3" width="40.0" height="3" fill="#F97316" rx="1.5" opacity="0.6"/>
<text x="24.0" y="37.9" font-family="Arial" font-size="1.2" fill="#1f2937">Q1</text>
<rect x="67.2" y="24.3" width="48.0" height="33.8" fill="#1f2937" stroke="#374151" stroke-width="0.8" rx="5"/>
<rect x="71.2" y="24.3" width="40.0" height="3" fill="#F97316" rx="1.5" opacity="0.6"/>
<text x="79.2" y="37.9" font-family="Arial" font-size="1.2" fill="#e5e7eb">Q2</text>
<rect x="122.4" y="24.3" width="48.0" height="33.8" fill="#0F2137" stroke="#374151" stroke-width="0.8" rx="5"/>
<rect x="126.4" y="24.3" width="40.0" height="3" fill="#F97316" rx="1.5" opacity="0.6"/>
<text x="134.4" y="37.9" font-family="Arial" font-size="1.2" fill="#1f2937">Q3</text>
<rect x="177.6" y="24.3" width="48.0" height="33.8" fill="#F97316" stroke="#374151" stroke-width="0.8" rx="5"/>
<rect x="181.6" y="24.3" width="40.0" height="3" fill="#F97316" rx="1.5" opacity="0.6"/>
<text x="189.6" y="37.9" font-family="Arial" font-size="1.2" fill="#1f2937">Q4</text>
<text x="232" y="129" text-anchor="end" font-family="monospace" font-size="7.5" fill="#9ca3af" opacity="0.45">timeline · rows · rows_timeline_alternating · Q:7.5</text>
</g>
<text x="368" y="479" text-anchor="middle" font-family="monospace" font-size="9" fill="#6b7280">timeline (Q:7.5)</text>
<g transform="translate(496,330)">
<rect width="240" height="135" fill="#111827" rx="6"/>
<rect x="0.5" y="0.5" width="239" height="134" fill="none" stroke="#374151" stroke-width="1" rx="6"/>
<rect x="0" y="0" width="240" height="3" fill="#F97316" rx="6"/>
<rect x="0" y="1.5" width="240" height="1.5" fill="#F97316"/>
<rect x="12.0" y="4.0" width="216.0" height="13.5" fill="#1f2937" rx="4"/><text x="120.0" y="11.5" text-anchor="middle" dominant-baseline="central" font-family="Arial" font-size="7.4" font-weight="bold" fill="#e5e7eb">Priority Matrix</text><rect x="12.0" y="15.6" width="75.6" height="2.5" fill="#F97316" rx="1"/>
<rect x="19.2" y="23.0" width="96.0" height="48.6" fill="#1f2937" stroke="#374151" stroke-width="0.8" rx="5"/>
<rect x="19.2" y="27.0" width="3" height="40.6" fill="#F97316" rx="1.5" opacity="0.6"/>
<text x="31.2" y="36.6" font-family="Arial" font-size="2.4" fill="#e5e7eb">High/Low</text>
<rect x="124.8" y="23.0" width="96.0" height="48.6" fill="#0F2137" stroke="#374151" stroke-width="0.8" rx="5"/>
<rect x="124.8" y="27.0" width="3" height="40.6" fill="#F97316" rx="1.5" opacity="0.6"/>
<text x="136.8" y="36.6" font-family="Arial" font-size="2.4" fill="#1f2937">High/High</text>
<rect x="19.2" y="75.6" width="96.0" height="48.6" fill="#0F2137" stroke="#374151" stroke-width="0.8" rx="5"/>
<rect x="19.2" y="79.6" width="3" height="40.6" fill="#F97316" rx="1.5" opacity="0.6"/>
<text x="31.2" y="89.2" font-family="Arial" font-size="2.4" fill="#1f2937">Low/Low</text>
<rect x="124.8" y="75.6" width="96.0" height="48.6" fill="#1f2937" stroke="#374151" stroke-width="0.8" rx="5"/>
<rect x="124.8" y="79.6" width="3" height="40.6" fill="#F97316" rx="1.5" opacity="0.6"/>
<text x="136.8" y="89.2" font-family="Arial" font-size="2.4" fill="#e5e7eb">Low/High</text>
<text x="232" y="129" text-anchor="end" font-family="monospace" font-size="7.5" fill="#9ca3af" opacity="0.45">matrix_2x2 · grid · grid_2x2_alternating · Q:8.0</text>
</g>
<text x="616" y="479" text-anchor="middle" font-family="monospace" font-size="9" fill="#6b7280">matrix_2x2 (Q:8.0)</text>
<g transform="translate(744,330)">
<rect width="240" height="135" fill="#111827" rx="6"/>
<rect x="0.5" y="0.5" width="239" height="134" fill="none" stroke="#374151" stroke-width="1" rx="6"/>
<rect x="0" y="0" width="240" height="3" fill="#F97316" rx="6"/>
<rect x="0" y="1.5" width="240" height="1.5" fill="#F97316"/>
<rect x="19.2" y="37.8" width="201.6" height="24.3" fill="#1f2937" rx="4"/><text x="120.0" y="51.2" text-anchor="middle" dominant-baseline="central" font-family="Arial" font-size="7.1" font-weight="bold" fill="#e5e7eb">Revenue grew 12% YoY</text><rect x="19.2" y="60.1" width="70.6" height="2.5" fill="#F97316" rx="1"/>
<rect x="36.0" y="70.2" width="168.0" height="20.2" fill="#0F2137" stroke="#374151" stroke-width="0.8" rx="5"/>
<rect x="36.0" y="74.2" width="3" height="12.2" fill="#F97316" rx="1.5" opacity="0.6"/>
<text x="232" y="129" text-anchor="end" font-family="monospace" font-size="7.5" fill="#9ca3af" opacity="0.45">single_insight · single · single_uniform · Q:8.5</text>
</g>
<text x="864" y="479" text-anchor="middle" font-family="monospace" font-size="9" fill="#6b7280">single_insight (Q:8.5)</text>
<g transform="translate(0,495)">
<rect width="240" height="135" fill="#111827" rx="6"/>
<rect x="0.5" y="0.5" width="239" height="134" fill="none" stroke="#374151" stroke-width="1" rx="6"/>
<rect x="0" y="0" width="240" height="3" fill="#F97316" rx="6"/>
<rect x="0" y="1.5" width="240" height="1.5" fill="#F97316"/>
<rect x="24.0" y="51.3" width="192.0" height="20.2" fill="#1f2937" rx="4"/><text x="120.0" y="62.4" text-anchor="middle" dominant-baseline="central" font-family="Arial" font-size="6.7" font-weight="bold" fill="#e5e7eb">Section Title</text><rect x="24.0" y="69.5" width="67.2" height="2.5" fill="#F97316" rx="1"/>
<text x="232" y="129" text-anchor="end" font-family="monospace" font-size="7.5" fill="#9ca3af" opacity="0.45">section_divider · single · single_uniform · Q:9.0</text>
</g>
<text x="120" y="644" text-anchor="middle" font-family="monospace" font-size="9" fill="#6b7280">section_divider (Q:9.0)</text>
<g transform="translate(248,495)">
<rect width="240" height="135" fill="#111827" rx="6"/>
<rect x="0.5" y="0.5" width="239" height="134" fill="none" stroke="#374151" stroke-width="1" rx="6"/>
<rect x="0" y="0" width="240" height="3" fill="#F97316" rx="6"/>
<rect x="0" y="1.5" width="240" height="1.5" fill="#F97316"/>
<rect x="12.0" y="4.0" width="216.0" height="13.5" fill="#1f2937" rx="4"/><text x="120.0" y="11.5" text-anchor="middle" dominant-baseline="central" font-family="Arial" font-size="7.4" font-weight="bold" fill="#e5e7eb">Next Steps</text><rect x="12.0" y="15.6" width="75.6" height="2.5" fill="#F97316" rx="1"/>
<rect x="19.2" y="24.3" width="201.6" height="97.2" fill="#0F2137" stroke="#374151" stroke-width="0.8" rx="5"/>
<rect x="19.2" y="28.3" width="3" height="89.2" fill="#F97316" rx="1.5" opacity="0.6"/>
<text x="31.3" y="42.5" font-family="Arial" font-size="5.0" fill="#1f2937">1. Finalize budget 2. Assign leads 3. Launch pilot</text>
<text x="232" y="129" text-anchor="end" font-family="monospace" font-size="7.5" fill="#9ca3af" opacity="0.45">conclusion_cta · stacked · stacked_uniform · Q:7.5</text>
</g>
<text x="368" y="644" text-anchor="middle" font-family="monospace" font-size="9" fill="#6b7280">conclusion_cta (Q:7.5)</text>
<g transform="translate(496,495)">
<rect width="240" height="135" fill="#111827" rx="6"/>
<rect x="0.5" y="0.5" width="239" height="134" fill="none" stroke="#374151" stroke-width="1" rx="6"/>
<rect x="0" y="0" width="240" height="3" fill="#F97316" rx="6"/>
<rect x="0" y="1.5" width="240" height="1.5" fill="#F97316"/>
<rect x="12.0" y="4.0" width="216.0" height="13.5" fill="#1f2937" rx="4"/><text x="120.0" y="11.5" text-anchor="middle" dominant-baseline="central" font-family="Arial" font-size="7.4" font-weight="bold" fill="#e5e7eb">Regional Data</text><rect x="12.0" y="15.6" width="75.6" height="2.5" fill="#F97316" rx="1"/>
<rect x="12.0" y="21.6" width="216.0" height="102.6" fill="#1f2937" stroke="#374151" stroke-width="0.8" rx="4"/>
<rect x="13.0" y="22.6" width="214.0" height="20.5" fill="#0F2137" rx="3" opacity="0.9"/>
<rect x="22.5" y="28.8" width="25.4" height="6.2" fill="#1f2937" rx="1.5" opacity="0.4"/>
<rect x="64.9" y="28.8" width="25.4" height="6.2" fill="#1f2937" rx="1.5" opacity="0.4"/>
<rect x="107.3" y="28.8" width="25.4" height="6.2" fill="#1f2937" rx="1.5" opacity="0.4"/>
<rect x="149.7" y="28.8" width="25.4" height="6.2" fill="#1f2937" rx="1.5" opacity="0.4"/>
<rect x="192.1" y="28.8" width="25.4" height="6.2" fill="#1f2937" rx="1.5" opacity="0.4"/>
<line x1="14.0" y1="63.6" x2="226.0" y2="63.6" stroke="#374151" stroke-width="0.3" opacity="0.25"/>
<rect x="22.5" y="49.3" width="25.4" height="6.2" fill="#9ca3af" rx="1.5" opacity="0.12"/>
<rect x="62.8" y="49.3" width="29.7" height="6.2" fill="#9ca3af" rx="1.5" opacity="0.12"/>
<rect x="109.4" y="49.3" width="21.2" height="6.2" fill="#9ca3af" rx="1.5" opacity="0.12"/>
<rect x="147.6" y="49.3" width="29.7" height="6.2" fill="#9ca3af" rx="1.5" opacity="0.12"/>
<rect x="192.1" y="49.3" width="25.4" height="6.2" fill="#9ca3af" rx="1.5" opacity="0.12"/>
<rect x="13.0" y="63.6" width="214.0" height="20.5" fill="#111827" opacity="0.5"/>
<line x1="14.0" y1="84.2" x2="226.0" y2="84.2" stroke="#374151" stroke-width="0.3" opacity="0.25"/>
<rect x="22.5" y="69.8" width="25.4" height="6.2" fill="#9ca3af" rx="1.5" opacity="0.12"/>
<rect x="67.0" y="69.8" width="21.2" height="6.2" fill="#9ca3af" rx="1.5" opacity="0.12"/>
<rect x="105.2" y="69.8" width="29.7" height="6.2" fill="#9ca3af" rx="1.5" opacity="0.12"/>
<rect x="151.8" y="69.8" width="21.2" height="6.2" fill="#9ca3af" rx="1.5" opacity="0.12"/>
<rect x="192.1" y="69.8" width="25.4" height="6.2" fill="#9ca3af" rx="1.5" opacity="0.12"/>
<line x1="14.0" y1="104.7" x2="226.0" y2="104.7" stroke="#374151" stroke-width="0.3" opacity="0.25"/>
<rect x="22.5" y="90.3" width="25.4" height="6.2" fill="#9ca3af" rx="1.5" opacity="0.12"/>
<rect x="67.0" y="90.3" width="21.2" height="6.2" fill="#9ca3af" rx="1.5" opacity="0.12"/>
<rect x="109.4" y="90.3" width="21.2" height="6.2" fill="#9ca3af" rx="1.5" opacity="0.12"/>
<rect x="149.7" y="90.3" width="25.4" height="6.2" fill="#9ca3af" rx="1.5" opacity="0.12"/>
<rect x="190.0" y="90.3" width="29.7" height="6.2" fill="#9ca3af" rx="1.5" opacity="0.12"/>
<rect x="13.0" y="104.7" width="214.0" height="20.5" fill="#111827" opacity="0.5"/>
<line x1="14.0" y1="125.2" x2="226.0" y2="125.2" stroke="#374151" stroke-width="0.3" opacity="0.25"/>
<rect x="22.5" y="110.8" width="25.4" height="6.2" fill="#9ca3af" rx="1.5" opacity="0.12"/>
<rect x="62.8" y="110.8" width="29.7" height="6.2" fill="#9ca3af" rx="1.5" opacity="0.12"/>
<rect x="109.4" y="110.8" width="21.2" height="6.2" fill="#9ca3af" rx="1.5" opacity="0.12"/>
<rect x="151.8" y="110.8" width="21.2" height="6.2" fill="#9ca3af" rx="1.5" opacity="0.12"/>
<rect x="192.1" y="110.8" width="25.4" height="6.2" fill="#9ca3af" rx="1.5" opacity="0.12"/>
<text x="232" y="129" text-anchor="end" font-family="monospace" font-size="7.5" fill="#9ca3af" opacity="0.45">data_table · stacked · stacked_uniform · Q:7.0</text>
</g>
<text x="616" y="644" text-anchor="middle" font-family="monospace" font-size="9" fill="#6b7280">data_table (Q:7.0)</text>
<g transform="translate(744,495)">
<rect width="240" height="135" fill="#111827" rx="6"/>
<rect x="0.5" y="0.5" width="239" height="134" fill="none" stroke="#374151" stroke-width="1" rx="6"/>
<rect x="0" y="0" width="240" height="3" fill="#F97316" rx="6"/>
<rect x="0" y="1.5" width="240" height="1.5" fill="#F97316"/>
<rect x="12.0" y="4.0" width="216.0" height="13.5" fill="#1f2937" rx="4"/><text x="120.0" y="11.5" text-anchor="middle" dominant-baseline="central" font-family="Arial" font-size="7.4" font-weight="bold" fill="#e5e7eb">APAC leads at 34%</text><rect x="12.0" y="15.6" width="75.6" height="2.5" fill="#F97316" rx="1"/>
<rect x="12.0" y="21.6" width="216.0" height="102.6" fill="#1f2937" stroke="#374151" stroke-width="0.8" rx="5"/>
<line x1="37.9" y1="107.8" x2="202.1" y2="107.8" stroke="#374151" stroke-width="0.7"/>
<line x1="37.9" y1="89.3" x2="202.1" y2="89.3" stroke="#374151" stroke-width="0.3" stroke-dasharray="3,3"/>
<line x1="37.9" y1="70.8" x2="202.1" y2="70.8" stroke="#374151" stroke-width="0.3" stroke-dasharray="3,3"/>
<line x1="37.9" y1="52.4" x2="202.1" y2="52.4" stroke="#374151" stroke-width="0.3" stroke-dasharray="3,3"/>
<rect x="42.3" y="77.9" width="14.7" height="29.9" fill="#0F2137" rx="2" opacity="0.8"/>
<rect x="65.8" y="59.9" width="14.7" height="47.9" fill="#0F2137" rx="2" opacity="0.8"/>
<rect x="89.2" y="69.2" width="14.7" height="38.6" fill="#0F2137" rx="2" opacity="0.8"/>
<rect x="112.7" y="49.3" width="14.7" height="58.5" fill="#F97316" rx="2" opacity="0.8"/>
<rect x="136.1" y="64.6" width="14.7" height="43.2" fill="#0F2137" rx="2" opacity="0.8"/>
<rect x="159.6" y="55.9" width="14.7" height="51.9" fill="#0F2137" rx="2" opacity="0.8"/>
<rect x="183.0" y="46.6" width="14.7" height="61.2" fill="#F97316" rx="2" opacity="0.8"/>
<text x="120.0" y="120.2" text-anchor="middle" font-family="monospace" font-size="7" fill="#9ca3af" opacity="0.4">chart</text>
<text x="232" y="129" text-anchor="end" font-family="monospace" font-size="7.5" fill="#9ca3af" opacity="0.45">chart_driven · stacked · stacked_uniform · Q:7.5</text>
</g>
<text x="864" y="644" text-anchor="middle" font-family="monospace" font-size="9" fill="#6b7280">chart_driven (Q:7.5)</text>
<g transform="translate(0,660)">
<rect width="240" height="135" fill="#111827" rx="6"/>
<rect x="0.5" y="0.5" width="239" height="134" fill="none" stroke="#374151" stroke-width="1" rx="6"/>
<rect x="0" y="0" width="240" height="3" fill="#F97316" rx="6"/>
<rect x="0" y="1.5" width="240" height="1.5" fill="#F97316"/>
<rect x="12.0" y="4.0" width="216.0" height="13.5" fill="#1f2937" rx="4"/><text x="120.0" y="11.5" text-anchor="middle" dominant-baseline="central" font-family="Arial" font-size="7.4" font-weight="bold" fill="#e5e7eb">Agenda</text><rect x="12.0" y="15.6" width="75.6" height="2.5" fill="#F97316" rx="1"/>
<rect x="24.0" y="24.3" width="192.0" height="97.2" fill="#0F2137" stroke="#374151" stroke-width="0.8" rx="5"/>
<rect x="24.0" y="28.3" width="3" height="89.2" fill="#F97316" rx="1.5" opacity="0.6"/>
<text x="36.0" y="42.5" font-family="Arial" font-size="4.8" fill="#1f2937">1. Review 2. Initiatives 3. Planning 4. Q&amp;A</text>
<text x="232" y="129" text-anchor="end" font-family="monospace" font-size="7.5" fill="#9ca3af" opacity="0.45">agenda · stacked · stacked_uniform · Q:7.5</text>
</g>
<text x="120" y="809" text-anchor="middle" font-family="monospace" font-size="9" fill="#6b7280">agenda (Q:7.5)</text>
<g transform="translate(248,660)">
<rect width="240" height="135" fill="#111827" rx="6"/>
<rect x="0.5" y="0.5" width="239" height="134" fill="none" stroke="#374151" stroke-width="1" rx="6"/>
<rect x="0" y="0" width="240" height="3" fill="#F97316" rx="6"/>
<rect x="0" y="1.5" width="240" height="1.5" fill="#F97316"/>
<rect x="36.0" y="43.2" width="168.0" height="20.2" fill="#1f2937" rx="4"/><text x="120.0" y="54.3" text-anchor="middle" dominant-baseline="central" font-family="Arial" font-size="5.9" font-weight="bold" fill="#e5e7eb">Thank You</text><rect x="36.0" y="61.5" width="58.8" height="2.5" fill="#F97316" rx="1"/>
<text x="120.0" y="76.7" text-anchor="middle" dominant-baseline="central" font-family="Arial" font-size="5.8" fill="#9ca3af" opacity="0.7">team@company.com</text>
<text x="232" y="129" text-anchor="end" font-family="monospace" font-size="7.5" fill="#9ca3af" opacity="0.45">thank_you · single · single_uniform · Q:8.5</text>
</g>
<text x="368" y="809" text-anchor="middle" font-family="monospace" font-size="9" fill="#6b7280">thank_you (Q:8.5)</text>
<g transform="translate(496,660)">
<rect width="240" height="135" fill="#111827" rx="6"/>
<rect x="0.5" y="0.5" width="239" height="134" fill="none" stroke="#374151" stroke-width="1" rx="6"/>
<rect x="0" y="0" width="240" height="3" fill="#F97316" rx="6"/>
<rect x="0" y="1.5" width="240" height="1.5" fill="#F97316"/>
<rect x="12.0" y="4.0" width="216.0" height="13.5" fill="#1f2937" rx="4"/><text x="120.0" y="11.5" text-anchor="middle" dominant-baseline="central" font-family="Arial" font-size="7.4" font-weight="bold" fill="#e5e7eb">Transformation</text><rect x="12.0" y="15.6" width="75.6" height="2.5" fill="#F97316" rx="1"/>
<rect x="12.0" y="23.0" width="103.2" height="101.2" fill="#0F2137" stroke="#374151" stroke-width="0.8" rx="5"/>
<rect x="12.0" y="27.0" width="3" height="93.2" fill="#F97316" rx="1.5" opacity="0.6"/>
<text x="24.0" y="41.9" font-family="Arial" font-size="2.6" fill="#1f2937">BEFORE</text>
<rect x="124.8" y="23.0" width="103.2" height="101.2" fill="#F97316" stroke="#374151" stroke-width="0.8" rx="5"/>
<rect x="124.8" y="27.0" width="3" height="93.2" fill="#F97316" rx="1.5" opacity="0.6"/>
<text x="136.8" y="41.9" font-family="Arial" font-size="2.6" fill="#1f2937">AFTER</text>
<text x="232" y="129" text-anchor="end" font-family="monospace" font-size="7.5" fill="#9ca3af" opacity="0.45">before_after · columns · columns_uniform · Q:7.5</text>
</g>
<text x="616" y="809" text-anchor="middle" font-family="monospace" font-size="9" fill="#6b7280">before_after (Q:7.5)</text>
<g transform="translate(744,660)">
<rect width="240" height="135" fill="#111827" rx="6"/>
<rect x="0.5" y="0.5" width="239" height="134" fill="none" stroke="#374151" stroke-width="1" rx="6"/>
<rect x="0" y="0" width="240" height="3" fill="#F97316" rx="6"/>
<rect x="0" y="1.5" width="240" height="1.5" fill="#F97316"/>
<rect x="12.0" y="4.0" width="216.0" height="13.5" fill="#1f2937" rx="4"/><text x="120.0" y="11.5" text-anchor="middle" dominant-baseline="central" font-family="Arial" font-size="7.4" font-weight="bold" fill="#e5e7eb">SWOT Analysis</text><rect x="12.0" y="15.6" width="75.6" height="2.5" fill="#F97316" rx="1"/>
<rect x="19.2" y="23.0" width="96.0" height="48.6" fill="#F97316" stroke="#374151" stroke-width="0.8" rx="5"/>
<text x="31.2" y="36.6" font-family="Arial" font-size="2.4" fill="#1f2937">Strengths</text>
<rect x="124.8" y="23.0" width="96.0" height="48.6" fill="#0F2137" stroke="#374151" stroke-width="0.8" rx="5"/>
<text x="136.8" y="36.6" font-family="Arial" font-size="2.4" fill="#1f2937">Weaknesses</text>
<rect x="19.2" y="75.6" width="96.0" height="48.6" fill="#0F2137" stroke="#374151" stroke-width="0.8" rx="5"/>
<text x="31.2" y="89.2" font-family="Arial" font-size="2.4" fill="#1f2937">Opportunities</text>
<rect x="124.8" y="75.6" width="96.0" height="48.6" fill="#1f2937" stroke="#374151" stroke-width="0.8" rx="5"/>
<text x="136.8" y="89.2" font-family="Arial" font-size="2.4" fill="#e5e7eb">Threats</text>
<text x="232" y="129" text-anchor="end" font-family="monospace" font-size="7.5" fill="#9ca3af" opacity="0.45">swot · grid · grid_2x2_swot · Q:7.5</text>
</g>
<text x="864" y="809" text-anchor="middle" font-family="monospace" font-size="9" fill="#6b7280">swot (Q:7.5)</text>
<g transform="translate(0,825)">
<rect width="240" height="135" fill="#111827" rx="6"/>
<rect x="0.5" y="0.5" width="239" height="134" fill="none" stroke="#374151" stroke-width="1" rx="6"/>
<rect x="0" y="0" width="240" height="3" fill="#F97316" rx="6"/>
<rect x="0" y="1.5" width="240" height="1.5" fill="#F97316"/>
<rect x="12.0" y="4.0" width="216.0" height="13.5" fill="#1f2937" rx="4"/><text x="120.0" y="11.5" text-anchor="middle" dominant-baseline="central" font-family="Arial" font-size="7.4" font-weight="bold" fill="#e5e7eb">Sales Pipeline</text><rect x="12.0" y="15.6" width="75.6" height="2.5" fill="#F97316" rx="1"/>
<rect x="24.0" y="23.0" width="192.0" height="21.6" fill="#0F2137" stroke="#374151" stroke-width="0.8" rx="5"/>
<rect x="24.0" y="27.0" width="3" height="13.6" fill="#F97316" rx="1.5" opacity="0.6"/>
<rect x="36.0" y="47.2" width="168.0" height="21.6" fill="#0F2137" stroke="#374151" stroke-width="0.8" rx="5"/>
<rect x="36.0" y="51.2" width="3" height="13.6" fill="#F97316" rx="1.5" opacity="0.6"/>
<rect x="48.0" y="71.5" width="144.0" height="21.6" fill="#1f2937" stroke="#374151" stroke-width="0.8" rx="5"/>
<rect x="48.0" y="75.5" width="3" height="13.6" fill="#F97316" rx="1.5" opacity="0.6"/>
<rect x="60.0" y="95.8" width="120.0" height="21.6" fill="#F97316" stroke="#374151" stroke-width="0.8" rx="5"/>
<rect x="60.0" y="99.8" width="3" height="13.6" fill="#F97316" rx="1.5" opacity="0.6"/>
<text x="232" y="129" text-anchor="end" font-family="monospace" font-size="7.5" fill="#9ca3af" opacity="0.45">funnel · stacked · stacked_uniform · Q:7.0</text>
</g>
<text x="120" y="974" text-anchor="middle" font-family="monospace" font-size="9" fill="#6b7280">funnel (Q:7.0)</text>
<g transform="translate(248,825)">
<rect width="240" height="135" fill="#111827" rx="6"/>
<rect x="0.5" y="0.5" width="239" height="134" fill="none" stroke="#374151" stroke-width="1" rx="6"/>
<rect x="0" y="0" width="240" height="3" fill="#F97316" rx="6"/>
<rect x="0" y="1.5" width="240" height="1.5" fill="#F97316"/>
<rect x="24.0" y="33.8" width="192.0" height="40.5" fill="#1f2937" rx="4"/><text x="120.0" y="56.0" text-anchor="middle" dominant-baseline="central" font-family="Arial" font-size="6.7" font-weight="bold" fill="#e5e7eb">This platform transformed our workflow</text><rect x="24.0" y="72.2" width="67.2" height="2.5" fill="#F97316" rx="1"/>
<text x="120.0" y="87.5" text-anchor="middle" dominant-baseline="central" font-family="Arial" font-size="5.8" fill="#9ca3af" opacity="0.7">— VP Operations, Client C</text>
<text x="232" y="129" text-anchor="end" font-family="monospace" font-size="7.5" fill="#9ca3af" opacity="0.45">quote_testimonial · single · single_uniform · Q:7.5</text>
</g>
<text x="368" y="974" text-anchor="middle" font-family="monospace" font-size="9" fill="#6b7280">quote_testimonial (Q:7.5)</text>
<g transform="translate(496,825)">
<rect width="240" height="135" fill="#111827" rx="6"/>
<rect x="0.5" y="0.5" width="239" height="134" fill="none" stroke="#374151" stroke-width="1" rx="6"/>
<rect x="0" y="0" width="240" height="3" fill="#F97316" rx="6"/>
<rect x="0" y="1.5" width="240" height="1.5" fill="#F97316"/>
<rect x="12.0" y="4.0" width="216.0" height="13.5" fill="#1f2937" rx="4"/><text x="120.0" y="11.5" text-anchor="middle" dominant-baseline="central" font-family="Arial" font-size="7.4" font-weight="bold" fill="#e5e7eb">Team Structure</text><rect x="12.0" y="15.6" width="75.6" height="2.5" fill="#F97316" rx="1"/>
<rect x="84.0" y="23.0" width="72.0" height="18.9" fill="#F97316" stroke="#374151" stroke-width="0.8" rx="5"/>
<rect x="12.0" y="51.3" width="60.0" height="18.9" fill="#0F2137" stroke="#374151" stroke-width="0.8" rx="5"/>
<rect x="88.8" y="51.3" width="60.0" height="18.9" fill="#0F2137" stroke="#374151" stroke-width="0.8" rx="5"/>
<rect x="165.6" y="51.3" width="60.0" height="18.9" fill="#0F2137" stroke="#374151" stroke-width="0.8" rx="5"/>
<rect x="12.0" y="78.3" width="60.0" height="18.9" fill="#1f2937" stroke="#374151" stroke-width="0.8" rx="5"/>
<rect x="88.8" y="78.3" width="60.0" height="18.9" fill="#1f2937" stroke="#374151" stroke-width="0.8" rx="5"/>
<rect x="165.6" y="78.3" width="60.0" height="18.9" fill="#1f2937" stroke="#374151" stroke-width="0.8" rx="5"/>
<text x="232" y="129" text-anchor="end" font-family="monospace" font-size="7.5" fill="#9ca3af" opacity="0.45">org_chart · stacked · stacked_uniform · Q:7.0</text>
</g>
<text x="616" y="974" text-anchor="middle" font-family="monospace" font-size="9" fill="#6b7280">org_chart (Q:7.0)</text>
<g transform="translate(744,825)">
<rect width="240" height="135" fill="#111827" rx="6"/>
<rect x="0.5" y="0.5" width="239" height="134" fill="none" stroke="#374151" stroke-width="1" rx="6"/>
<rect x="0" y="0" width="240" height="3" fill="#F97316" rx="6"/>
<rect x="0" y="1.5" width="240" height="1.5" fill="#F97316"/>
<rect x="12.0" y="6.8" width="144.0" height="114.8" fill="#111827" stroke="#374151" stroke-width="0.8" rx="5"/>
<circle cx="120.0" cy="38.9" r="9.2" fill="#F97316" opacity="0.25"/>
<polygon points="19,104 48,47 84,104" fill="#9ca3af" opacity="0.15"/>
<polygon points="62,104 98,58 134,104" fill="#9ca3af" opacity="0.1"/>
<text x="84.0" y="112.3" text-anchor="middle" font-family="monospace" font-size="7" fill="#9ca3af" opacity="0.3">image</text>
<rect x="163.2" y="27.0" width="67.2" height="20.2" fill="#1f2937" rx="4"/><text x="196.8" y="38.1" text-anchor="middle" dominant-baseline="central" font-family="Arial" font-size="2.4" font-weight="bold" fill="#e5e7eb">Product Launch</text><rect x="163.2" y="45.2" width="23.5" height="2.5" fill="#F97316" rx="1"/>
<rect x="163.2" y="54.0" width="67.2" height="54.0" fill="#0F2137" stroke="#374151" stroke-width="0.8" rx="5"/>
<rect x="163.2" y="58.0" width="3" height="46.0" fill="#F97316" rx="1.5" opacity="0.6"/>
<text x="175.2" y="67.6" font-family="Arial" font-size="1.7" fill="#1f2937">Our latest innovation</text>
<text x="232" y="129" text-anchor="end" font-family="monospace" font-size="7.5" fill="#9ca3af" opacity="0.45">image_showcase · columns · columns_uniform · Q:7.0</text>
</g>
<text x="864" y="974" text-anchor="middle" font-family="monospace" font-size="9" fill="#6b7280">image_showcase (Q:7.0)</text>
</svg>