<svg viewBox="0 0 932 576" xmlns="http://www.w3.org/2000/svg">
<g transform="translate(0,0)">
<rect width="460" height="260" fill="#111827" rx="6"/>
<rect x="0.5" y="0.5" width="459" height="259" fill="none" stroke="#374151" stroke-width="1" rx="6"/>
<rect x="0" y="0" width="460" height="3" fill="#F97316" rx="6"/>
<rect x="0" y="1.5" width="460" height="1.5" fill="#F97316"/>
<rect x="23.0" y="7.8" width="414.0" height="26.0" fill="#1f2937" rx="4"/><text x="230.0" y="22.1" text-anchor="middle" dominant-baseline="central" font-family="Arial" font-size="14.3" font-weight="bold" fill="#e5e7eb">Key Takeaways</text><rect x="23.0" y="31.8" width="120.0" height="2.5" fill="#F97316" rx="1"/>
<rect x="23.0" y="44.2" width="128.8" height="189.8" fill="#0F2137" stroke="#374151" stroke-width="0.8" rx="5"/>
<rect x="23.0" y="48.2" width="3" height="181.8" fill="#F97316" rx="1.5" opacity="0.6"/>
<text x="35.0" y="73.0" font-family="Arial" font-size="3.2" fill="#1f2937">Revenue exceeded targets</text>
<rect x="165.6" y="44.2" width="128.8" height="189.8" fill="#1f2937" stroke="#374151" stroke-width="0.8" rx="5"/>
<rect x="165.6" y="48.2" width="3" height="181.8" fill="#F97316" rx="1.5" opacity="0.6"/>
<text x="177.6" y="73.0" font-family="Arial" font-size="3.2" fill="#e5e7eb">Margin improved</text>
<rect x="308.2" y="44.2" width="128.8" height="189.8" fill="#0F2137" stroke="#374151" stroke-width="0.8" rx="5"/>
<rect x="308.2" y="48.2" width="3" height="181.8" fill="#F97316" rx="1.5" opacity="0.6"/>
<text x="320.2" y="73.0" font-family="Arial" font-size="3.2" fill="#1f2937">Growth on track</text>
<text x="452" y="254" text-anchor="end" font-family="monospace" font-size="7.5" fill="#9ca3af" opacity="0.45">executive_summary · columns · columns_alternating_dark_light · Q:8.0</text>
</g>
<text x="230" y="274" text-anchor="middle" font-family="monospace" font-size="9" fill="#6b7280">executive_summary (Q:8.0)</text>
<g transform="translate(472,0)">
<rect width="460" height="260" fill="#111827" rx="6"/>
<rect x="0.5" y="0.5" width="459" height="259" fill="none" stroke="#374151" stroke-width="1" rx="6"/>
<rect x="0" y="0" width="460" height="3" fill="#F97316" rx="6"/>
<rect x="0" y="1.5" width="460" height="1.5" fill="#F97316"/>
<rect x="23.0" y="7.8" width="414.0" height="26.0" fill="#1f2937" rx="4"/><text x="230.0" y="22.1" text-anchor="middle" dominant-baseline="central" font-family="Arial" font-size="14.3" font-weight="bold" fill="#e5e7eb">Dashboard</text><rect x="23.0" y="31.8" width="120.0" height="2.5" fill="#F97316" rx="1"/>
<rect x="23.0" y="46.8" width="92.0" height="72.8" fill="#0F2137" stroke="#374151" stroke-width="0.8" rx="6"/>
<rect x="23.0" y="46.8" width="92.0" height="3.5" fill="#F97316" rx="6"/>
<rect x="23.0" y="48.3" width="92.0" height="2" fill="#F97316"/>
<circle cx="94.8" cy="57.7" r="5.1" fill="#F97316" opacity="0.12"/>
<text x="94.8" y="59.7" text-anchor="middle" font-size="5" fill="#F97316" opacity="0.4">dollar</text>
<text x="69.0" y="68.6" text-anchor="middle" dominant-baseline="central" font-family="Arial" font-size="18.4" font-weight="bold" fill="#1f2937">$12.4M</text>
<rect x="46.0" y="76.9" width="46.0" height="1.5" fill="#F97316" rx="0.75" opacity="0.25"/>
<text x="69.0" y="81.5" text-anchor="middle" font-family="Arial" font-size="2.0" fill="#F97316" letter-spacing="1.5">REVENUE</text>
<text x="69.0" y="112.3" text-anchor="middle" font-size="5.5" fill="#F97316" font-style="italic" opacity="0.5">+8% vs plan</text>
<polyline points="48.3,106.3 55.2,104.3 62.1,106.5 69.0,102.5 75.9,104.1 82.8,104.3 89.7,99.2" fill="none" stroke="#F97316" stroke-width="1" stroke-linecap="round" opacity="0.3"/>
<path d="M103,107L103,101L100,104M103,101L106,104" stroke="#059669" stroke-width="1.5" fill="none" stroke-linecap="round"/>
<rect x="128.8" y="46.8" width="92.0" height="72.8" fill="#1f2937" stroke="#374151" stroke-width="0.8" rx="6"/>
<rect x="128.8" y="46.8" width="92.0" height="3.5" fill="#F97316" rx="6"/>
<rect x="128.8" y="48.3" width="92.0" height="2" fill="#F97316"/>
<circle cx="200.6" cy="57.7" r="5.1" fill="#F97316" opacity="0.12"/>
<text x="200.6" y="59.7" text-anchor="middle" font-size="5" fill="#9ca3af" opacity="0.4">trendi</text>
<text x="174.8" y="68.6" text-anchor="middle" dominant-baseline="central" font-family="Arial" font-size="18.4" font-weight="bold" fill="#e5e7eb">24.1%</text>
<rect x="151.8" y="76.9" width="46.0" height="1.5" fill="#9ca3af" rx="0.75" opacity="0.25"/>
<text x="174.8" y="81.5" text-anchor="middle" font-family="Arial" font-size="2.0" fill="#9ca3af" letter-spacing="1.5">OP. MARGIN</text>
<text x="174.8" y="112.3" text-anchor="middle" font-size="5.5" fill="#9ca3af" font-style="italic" opacity="0.5">+180bps YoY</text>
<polyline points="154.1,106.5 161.0,104.3 167.9,106.5 174.8,102.5 181.7,103.8 188.6,104.3 195.5,99.2" fill="none" stroke="#F97316" stroke-width="1" stroke-linecap="round" opacity="0.3"/>
<path d="M209,107L209,101L206,104M209,101L212,104" stroke="#059669" stroke-width="1.5" fill="none" stroke-linecap="round"/>
<rect x="234.6" y="46.8" width="92.0" height="72.8" fill="#0F2137" stroke="#374151" stroke-width="0.8" rx="6"/>
<rect x="234.6" y="46.8" width="92.0" height="3.5" fill="#F97316" rx="6"/>
<rect x="234.6" y="48.3" width="92.0" height="2" fill="#F97316"/>
<circle cx="306.4" cy="57.7" r="5.1" fill="#F97316" opacity="0.12"/>
<text x="306.4" y="59.7" text-anchor="middle" font-size="5" fill="#F97316" opacity="0.4">users</text>
<text x="280.6" y="68.6" text-anchor="middle" dominant-baseline="central" font-family="Arial" font-size="18.4" font-weight="bold" fill="#1f2937">72</text>
<rect x="257.6" y="76.9" width="46.0" height="1.5" fill="#F97316" rx="0.75" opacity="0.25"/>
<text x="280.6" y="81.5" text-anchor="middle" font-family="Arial" font-size="2.0" fill="#F97316" letter-spacing="1.5">CUSTOMERS</text>
<text x="280.6" y="112.3" text-anchor="middle" font-size="5.5" fill="#F97316" font-style="italic" opacity="0.5">+89 net new</text>
<polyline points="259.9,105.8 266.8,104.2 273.7,106.5 280.6,102.4 287.5,104.9 294.4,104.2 301.3,99.2" fill="none" stroke="#F97316" stroke-width="1" stroke-linecap="round" opacity="0.3"/>
<path d="M315,107L315,101L312,104M315,101L318,104" stroke="#059669" stroke-width="1.5" fill="none" stroke-linecap="round"/>
<rect x="340.4" y="46.8" width="92.0" height="72.8" fill="#F97316" stroke="#374151" stroke-width="0.8" rx="6"/>
<rect x="340.4" y="46.8" width="92.0" height="3.5" fill="#F97316" rx="6"/>
<rect x="340.4" y="48.3" width="92.0" height="2" fill="#F97316"/>
<circle cx="412.2" cy="57.7" r="5.1" fill="#F97316" opacity="0.12"/>
<text x="412.2" y="59.7" text-anchor="middle" font-size="5" fill="#1f2937" opacity="0.4">target</text>
<text x="386.4" y="68.6" text-anchor="middle" dominant-baseline="central" font-family="Arial" font-size="18.4" font-weight="bold" fill="#1f2937">340</text>
<rect x="363.4" y="76.9" width="46.0" height="1.5" fill="#1f2937" rx="0.75" opacity="0.25"/>
<text x="386.4" y="81.5" text-anchor="middle" font-family="Arial" font-size="2.0" fill="#1f2937" letter-spacing="1.5">PIPELINE</text>
<text x="386.4" y="112.3" text-anchor="middle" font-size="5.5" fill="#1f2937" font-style="italic" opacity="0.5">+34% QoQ</text>
<polyline points="365.7,106.5 372.6,104.3 379.5,106.3 386.4,102.5 393.3,103.5 400.2,104.3 407.1,99.2" fill="none" stroke="#F97316" stroke-width="1" stroke-linecap="round" opacity="0.3"/>
<path d="M420,107L420,101L417,104M420,101L423,104" stroke="#059669" stroke-width="1.5" fill="none" stroke-linecap="round"/>
<rect x="23.0" y="135.2" width="414.0" height="104.0" fill="#0F2137" stroke="#374151" stroke-width="0.8" rx="5"/>
<rect x="23.0" y="139.2" width="3" height="96.0" fill="#F97316" rx="1.5" opacity="0.6"/>
<text x="47.8" y="154.7" font-family="Arial" font-size="10.4" fill="#1f2937">All metrics positive</text>
<text x="452" y="254" text-anchor="end" font-family="monospace" font-size="7.5" fill="#9ca3af" opacity="0.45">kpi_dashboard · grid · grid_alternating_dark_light · Q:9.0</text>
</g>
<text x="702" y="274" text-anchor="middle" font-family="monospace" font-size="9" fill="#6b7280">kpi_dashboard (Q:9.0)</text>
<g transform="translate(0,294)">
<rect width="460" height="260" fill="#111827" rx="6"/>
<rect x="0.5" y="0.5" width="459" height="259" fill="none" stroke="#374151" stroke-width="1" rx="6"/>
<rect x="0" y="0" width="460" height="3" fill="#F97316" rx="6"/>
<rect x="0" y="1.5" width="460" height="1.5" fill="#F97316"/>
<rect x="23.0" y="7.8" width="414.0" height="26.0" fill="#1f2937" rx="4"/><text x="230.0" y="22.1" text-anchor="middle" dominant-baseline="central" font-family="Arial" font-size="14.3" font-weight="bold" fill="#e5e7eb">Process</text><rect x="23.0" y="31.8" width="120.0" height="2.5" fill="#F97316" rx="1"/>
<rect x="13.8" y="57.2" width="101.2" height="169.0" fill="#0F2137" stroke="#374151" stroke-width="0.8" rx="5"/>
<rect x="17.8" y="57.2" width="93.2" height="3" fill="#F97316" rx="1.5" opacity="0.6"/>
<text x="25.8" y="83.9" font-family="Arial" font-size="2.5" fill="#1f2937">Step 1</text>
<rect x="124.2" y="57.2" width="101.2" height="169.0" fill="#1f2937" stroke="#374151" stroke-width="0.8" rx="5"/>
<rect x="128.2" y="57.2" width="93.2" height="3" fill="#F97316" rx="1.5" opacity="0.6"/>
<text x="136.2" y="83.9" font-family="Arial" font-size="2.5" fill="#e5e7eb">Step 2</text>
<rect x="234.6" y="57.2" width="101.2" height="169.0" fill="#0F2137" stroke="#374151" stroke-width="0.8" rx="5"/>
<rect x="238.6" y="57.2" width="93.2" height="3" fill="#F97316" rx="1.5" opacity="0.6"/>
<text x="246.6" y="83.9" font-family="Arial" font-size="2.5" fill="#1f2937">Step 3</text>
<rect x="345.0" y="57.2" width="101.2" height="169.0" fill="#F97316" stroke="#374151" stroke-width="0.8" rx="5"/>
<rect x="349.0" y="57.2" width="93.2" height="3" fill="#F97316" rx="1.5" opacity="0.6"/>
<text x="357.0" y="83.9" font-family="Arial" font-size="2.5" fill="#1f2937">Step 4</text>
<text x="452" y="254" text-anchor="end" font-family="monospace" font-size="7.5" fill="#9ca3af" opacity="0.45">linear_process · columns · columns_numbered_steps · Q:7.5</text>
</g>
<text x="230" y="568" text-anchor="middle" font-family="monospace" font-size="9" fill="#6b7280">linear_process (Q:7.5)</text>
<g transform="translate(472,294)">
<rect width="460" height="260" fill="#111827" rx="6"/>
<rect x="0.5" y="0.5" width="459" height="259" fill="none" stroke="#374151" stroke-width="1" rx="6"/>
<rect x="0" y="0" width="460" height="3" fill="#F97316" rx="6"/>
<rect x="0" y="1.5" width="460" height="1.5" fill="#F97316"/>
<rect x="23.0" y="7.8" width="414.0" height="26.0" fill="#1f2937" rx="4"/><text x="230.0" y="22.1" text-anchor="middle" dominant-baseline="central" font-family="Arial" font-size="14.3" font-weight="bold" fill="#e5e7eb">SWOT Analysis</text><rect x="23.0" y="31.8" width="120.0" height="2.5" fill="#F97316" rx="1"/>
<rect x="36.8" y="44.2" width="184.0" height="93.6" fill="#F97316" stroke="#374151" stroke-width="0.8" rx="5"/>
<text x="48.8" y="61.8" font-family="Arial" font-size="4.6" fill="#1f2937">Strengths</text>
<rect x="239.2" y="44.2" width="184.0" height="93.6" fill="#0F2137" stroke="#374151" stroke-width="0.8" rx="5"/>
<text x="251.2" y="61.8" font-family="Arial" font-size="4.6" fill="#1f2937">Weaknesses</text>
<rect x="36.8" y="145.6" width="184.0" height="93.6" fill="#0F2137" stroke="#374151" stroke-width="0.8" rx="5"/>
<text x="48.8" y="163.2" font-family="Arial" font-size="4.6" fill="#1f2937">Opportunities</text>
<rect x="239.2" y="145.6" width="184.0" height="93.6" fill="#1f2937" stroke="#374151" stroke-width="0.8" rx="5"/>
<text x="251.2" y="163.2" font-family="Arial" font-size="4.6" fill="#e5e7eb">Threats</text>
<text x="452" y="254" text-anchor="end" font-family="monospace" font-size="7.5" fill="#9ca3af" opacity="0.45">swot · grid · grid_2x2_swot · Q:7.5</text>
</g>
<text x="702" y="568" text-anchor="middle" font-family="monospace" font-size="9" fill="#6b7280">swot (Q:7.5)</text>
</svg>