<svg viewBox="0 0 984 487" xmlns="http://www.w3.org/2000/svg">
<g transform="translate(0,0)">
<rect width="240" height="135" fill="#111827" rx="6"/>
<rect x="0.5" y="0.5" width="239" height="134" fill="none" stroke="#374151" stroke-width="1" rx="6"/>
<rect x="0" y="0" width="240" height="3" fill="#F97316" rx="6"/>
<rect x="0" y="1.5" width="240" height="1.5" fill="#F97316"/>
<rect x="24.0" y="40.5" width="192.0" height="21.6" fill="#1f2937" rx="4"/><text x="120.0" y="52.4" text-anchor="middle" dominant-baseline="central" font-family="Arial" font-size="6.7" font-weight="bold" fill="#e5e7eb">CompanyName</text><rect x="24.0" y="60.1" width="67.2" height="2.5" fill="#F97316" rx="1"/>
<rect x="36.0" y="67.5" width="168.0" height="10.8" fill="#1f2937" rx="3" opacity="0.85"/><text x="120.0" y="73.4" text-anchor="middle" dominant-baseline="central" font-family="Arial" font-size="4.2" fill="#e5e7eb">Tagline: 5-7 words describing what you d</text>
<text x="232" y="129" text-anchor="end" font-family="monospace" font-size="7.5" fill="#9ca3af" opacity="0.45">cover · single · single_uniform · Q:8.5</text>
</g>
<text x="120" y="149" text-anchor="middle" font-family="monospace" font-size="9" fill="#6b7280">cover (Q:8.5)</text>
<g transform="translate(248,0)">
<rect width="240" height="135" fill="#111827" rx="6"/>
<rect x="0.5" y="0.5" width="239" height="134" fill="none" stroke="#374151" stroke-width="1" rx="6"/>
<rect x="0" y="0" width="240" height="3" fill="#F97316" rx="6"/>
<rect x="0" y="1.5" width="240" height="1.5" fill="#F97316"/>
<rect x="19.2" y="33.8" width="201.6" height="27.0" fill="#1f2937" rx="4"/><text x="120.0" y="48.6" text-anchor="middle" dominant-baseline="central" font-family="Arial" font-size="7.1" font-weight="bold" fill="#e5e7eb">Problem: $X billion lost annually to Y</text><rect x="19.2" y="58.8" width="70.6" height="2.5" fill="#F97316" rx="1"/>
<rect x="36.0" y="70.2" width="168.0" height="27.0" fill="#0F2137" stroke="#374151" stroke-width="0.8" rx="5"/>
<rect x="36.0" y="74.2" width="3" height="19.0" fill="#F97316" rx="1.5" opacity="0.6"/>
<text x="48.0" y="83.8" font-family="Arial" font-size="4.2" fill="#1f2937">Current solutions are slow, expensive, and unreliable</text>
<text x="232" y="129" text-anchor="end" font-family="monospace" font-size="7.5" fill="#9ca3af" opacity="0.45">single_insight · single · single_uniform · Q:8.5</text>
</g>
<text x="368" y="149" text-anchor="middle" font-family="monospace" font-size="9" fill="#6b7280">single_insight (Q:8.5)</text>
<g transform="translate(496,0)">
<rect width="240" height="135" fill="#111827" rx="6"/>
<rect x="0.5" y="0.5" width="239" height="134" fill="none" stroke="#374151" stroke-width="1" rx="6"/>
<rect x="0" y="0" width="240" height="3" fill="#F97316" rx="6"/>
<rect x="0" y="1.5" width="240" height="1.5" fill="#F97316"/>
<rect x="9.6" y="4.0" width="220.8" height="16.2" fill="#1f2937" rx="4"/><text x="120.0" y="13.0" text-anchor="middle" dominant-baseline="central" font-family="Arial" font-size="7.7" font-weight="bold" fill="#e5e7eb">Our solution eliminates Y with AI-powered Z</text><rect x="9.6" y="18.2" width="77.3" height="2.5" fill="#F97316" rx="1"/>
<rect x="9.6" y="27.0" width="108.0" height="97.2" fill="#111827" stroke="#374151" stroke-width="0.8" rx="5"/>
<circle cx="90.6" cy="54.2" r="7.8" fill="#F97316" opacity="0.25"/>
<polygon points="15,110 37,61 64,110" fill="#9ca3af" opacity="0.15"/>
<polygon points="47,110 74,71 101,110" fill="#9ca3af" opacity="0.1"/>
<text x="63.6" y="116.4" text-anchor="middle" font-family="monospace" font-size="7" fill="#9ca3af" opacity="0.3">image</text>
<rect x="124.8" y="27.0" width="105.6" height="97.2" fill="#0F2137" stroke="#374151" stroke-width="0.8" rx="5"/>
<rect x="124.8" y="31.0" width="3" height="89.2" fill="#F97316" rx="1.5" opacity="0.6"/>
<text x="136.8" y="45.2" font-family="Arial" font-size="2.6" fill="#1f2937">Key features: 10x faster processing, 60% cost reduction, real-time analytics</text>
<text x="232" y="129" text-anchor="end" font-family="monospace" font-size="7.5" fill="#9ca3af" opacity="0.45">single_insight · columns · columns_uniform · Q:8.0</text>
</g>
<text x="616" y="149" text-anchor="middle" font-family="monospace" font-size="9" fill="#6b7280">single_insight (Q:8.0)</text>
<g transform="translate(744,0)">
<rect width="240" height="135" fill="#111827" rx="6"/>
<rect x="0.5" y="0.5" width="239" height="134" fill="none" stroke="#374151" stroke-width="1" rx="6"/>
<rect x="0" y="0" width="240" height="3" fill="#F97316" rx="6"/>
<rect x="0" y="1.5" width="240" height="1.5" fill="#F97316"/>
<rect x="9.6" y="4.0" width="220.8" height="13.5" fill="#1f2937" rx="4"/><text x="120.0" y="11.5" text-anchor="middle" dominant-baseline="central" font-family="Arial" font-size="7.4" font-weight="bold" fill="#e5e7eb">$4.2B market growing 23% annually</text><rect x="9.6" y="15.6" width="77.3" height="2.5" fill="#F97316" rx="1"/>
<rect x="9.6" y="23.0" width="67.2" height="40.5" fill="#0F2137" stroke="#374151" stroke-width="0.8" rx="6"/>
<rect x="9.6" y="23.0" width="67.2" height="3.5" fill="#F97316" rx="6"/>
<rect x="9.6" y="24.5" width="67.2" height="2" fill="#F97316"/>
<circle cx="62.0" cy="29.0" r="2.8" fill="#F97316" opacity="0.12"/>
<text x="62.0" y="31.0" text-anchor="middle" font-size="5" fill="#F97316" opacity="0.4">globe</text>
<text x="43.2" y="35.1" text-anchor="middle" dominant-baseline="central" font-family="Arial" font-size="12.2" font-weight="bold" fill="#1f2937">$4.2B</text>
<rect x="26.4" y="40.6" width="33.6" height="1.5" fill="#F97316" rx="0.75" opacity="0.25"/>
<text x="43.2" y="43.6" text-anchor="middle" font-family="Arial" font-size="1.5" fill="#F97316" letter-spacing="1.5">TAM</text>
<polyline points="28.1,56.2 33.1,54.9 38.2,56.0 43.2,53.9 48.2,54.4 53.3,54.9 58.3,52.1" fill="none" stroke="#F97316" stroke-width="1" stroke-linecap="round" opacity="0.3"/>
<path d="M68,58L68,52L65,55M68,52L71,55" stroke="#059669" stroke-width="1.5" fill="none" stroke-linecap="round"/>
<rect x="86.4" y="23.0" width="67.2" height="40.5" fill="#1f2937" stroke="#374151" stroke-width="0.8" rx="6"/>
<rect x="86.4" y="23.0" width="67.2" height="3.5" fill="#F97316" rx="6"/>
<rect x="86.4" y="24.5" width="67.2" height="2" fill="#F97316"/>
<circle cx="138.8" cy="29.0" r="2.8" fill="#F97316" opacity="0.12"/>
<text x="138.8" y="31.0" text-anchor="middle" font-size="5" fill="#9ca3af" opacity="0.4">trendi</text>
<text x="120.0" y="35.1" text-anchor="middle" dominant-baseline="central" font-family="Arial" font-size="12.2" font-weight="bold" fill="#e5e7eb">23%</text>
<rect x="103.2" y="40.6" width="33.6" height="1.5" fill="#9ca3af" rx="0.75" opacity="0.25"/>
<text x="120.0" y="43.6" text-anchor="middle" font-family="Arial" font-size="1.5" fill="#9ca3af" letter-spacing="1.5">CAGR</text>
<polyline points="104.9,56.2 109.9,54.9 115.0,56.0 120.0,53.9 125.0,54.4 130.1,54.9 135.1,52.1" fill="none" stroke="#F97316" stroke-width="1" stroke-linecap="round" opacity="0.3"/>
<path d="M145,58L145,52L142,55M145,52L148,55" stroke="#059669" stroke-width="1.5" fill="none" stroke-linecap="round"/>
<rect x="163.2" y="23.0" width="67.2" height="40.5" fill="#F97316" stroke="#374151" stroke-width="0.8" rx="6"/>
<rect x="163.2" y="23.0" width="67.2" height="3.5" fill="#F97316" rx="6"/>
<rect x="163.2" y="24.5" width="67.2" height="2" fill="#F97316"/>
<circle cx="215.6" cy="29.0" r="2.8" fill="#F97316" opacity="0.12"/>
<text x="215.6" y="31.0" text-anchor="middle" font-size="5" fill="#1f2937" opacity="0.4">target</text>
<text x="196.8" y="35.1" text-anchor="middle" dominant-baseline="central" font-family="Arial" font-size="12.2" font-weight="bold" fill="#1f2937">$820M</text>
<rect x="180.0" y="40.6" width="33.6" height="1.5" fill="#1f2937" rx="0.75" opacity="0.25"/>
<text x="196.8" y="43.6" text-anchor="middle" font-family="Arial" font-size="1.5" fill="#1f2937" letter-spacing="1.5">SAM</text>
<polyline points="181.7,55.9 186.7,54.9 191.8,56.2 196.8,53.9 201.8,55.0 206.9,54.9 211.9,52.1" fill="none" stroke="#F97316" stroke-width="1" stroke-linecap="round" opacity="0.3"/>
<path d="M222,58L222,52L219,55M222,52L225,55" stroke="#059669" stroke-width="1.5" fill="none" stroke-linecap="round"/>
<rect x="9.6" y="70.2" width="220.8" height="54.0" fill="#0F2137" stroke="#374151" stroke-width="0.8" rx="5"/>
<rect x="9.6" y="74.2" width="3" height="46.0" fill="#F97316" rx="1.5" opacity="0.6"/>
<text x="22.8" y="83.8" font-family="Arial" font-size="5.5" fill="#1f2937">TAM: $4.2B · SAM: $820M · SOM: $120M (Year 3)</text>
<text x="232" y="129" text-anchor="end" font-family="monospace" font-size="7.5" fill="#9ca3af" opacity="0.45">kpi_dashboard · columns · columns_uniform · Q:8.0</text>
</g>
<text x="864" y="149" text-anchor="middle" font-family="monospace" font-size="9" fill="#6b7280">kpi_dashboard (Q:8.0)</text>
<g transform="translate(0,165)">
<rect width="240" height="135" fill="#111827" rx="6"/>
<rect x="0.5" y="0.5" width="239" height="134" fill="none" stroke="#374151" stroke-width="1" rx="6"/>
<rect x="0" y="0" width="240" height="3" fill="#F97316" rx="6"/>
<rect x="0" y="1.5" width="240" height="1.5" fill="#F97316"/>
<rect x="9.6" y="4.0" width="220.8" height="13.5" fill="#1f2937" rx="4"/><text x="120.0" y="11.5" text-anchor="middle" dominant-baseline="central" font-family="Arial" font-size="7.4" font-weight="bold" fill="#e5e7eb">Strong traction: 340% MoM growth</text><rect x="9.6" y="15.6" width="77.3" height="2.5" fill="#F97316" rx="1"/>
<rect x="9.6" y="23.0" width="67.2" height="37.8" fill="#0F2137" stroke="#374151" stroke-width="0.8" rx="6"/>
<rect x="9.6" y="23.0" width="67.2" height="3.5" fill="#F97316" rx="6"/>
<rect x="9.6" y="24.5" width="67.2" height="2" fill="#F97316"/>
<circle cx="62.0" cy="28.6" r="2.6" fill="#F97316" opacity="0.12"/>
<text x="62.0" y="30.6" text-anchor="middle" font-size="5" fill="#F97316" opacity="0.4">dollar</text>
<text x="43.2" y="34.3" text-anchor="middle" dominant-baseline="central" font-family="Arial" font-size="11.3" font-weight="bold" fill="#1f2937">$48K</text>
<rect x="26.4" y="39.4" width="33.6" height="1.5" fill="#F97316" rx="0.75" opacity="0.25"/>
<text x="43.2" y="42.2" text-anchor="middle" font-family="Arial" font-size="1.5" fill="#F97316" letter-spacing="1.5">MRR</text>
<polyline points="28.1,53.9 33.1,52.8 38.2,53.9 43.2,51.9 48.2,52.7 53.3,52.8 58.3,50.2" fill="none" stroke="#F97316" stroke-width="1" stroke-linecap="round" opacity="0.3"/>
<path d="M68,56L68,50L65,53M68,50L71,53" stroke="#059669" stroke-width="1.5" fill="none" stroke-linecap="round"/>
<rect x="86.4" y="23.0" width="67.2" height="37.8" fill="#1f2937" stroke="#374151" stroke-width="0.8" rx="6"/>
<rect x="86.4" y="23.0" width="67.2" height="3.5" fill="#F97316" rx="6"/>
<rect x="86.4" y="24.5" width="67.2" height="2" fill="#F97316"/>
<circle cx="138.8" cy="28.6" r="2.6" fill="#F97316" opacity="0.12"/>
<text x="138.8" y="30.6" text-anchor="middle" font-size="5" fill="#9ca3af" opacity="0.4">users</text>
<text x="120.0" y="34.3" text-anchor="middle" dominant-baseline="central" font-family="Arial" font-size="11.3" font-weight="bold" fill="#e5e7eb">1,200</text>
<rect x="103.2" y="39.4" width="33.6" height="1.5" fill="#9ca3af" rx="0.75" opacity="0.25"/>
<text x="120.0" y="42.2" text-anchor="middle" font-family="Arial" font-size="1.5" fill="#9ca3af" letter-spacing="1.5">USERS</text>
<polyline points="104.9,53.7 109.9,52.8 115.0,53.9 120.0,51.8 125.0,52.9 130.1,52.8 135.1,50.2" fill="none" stroke="#F97316" stroke-width="1" stroke-linecap="round" opacity="0.3"/>
<path d="M145,56L145,50L142,53M145,50L148,53" stroke="#059669" stroke-width="1.5" fill="none" stroke-linecap="round"/>
<rect x="163.2" y="23.0" width="67.2" height="37.8" fill="#F97316" stroke="#374151" stroke-width="0.8" rx="6"/>
<rect x="163.2" y="23.0" width="67.2" height="3.5" fill="#F97316" rx="6"/>
<rect x="163.2" y="24.5" width="67.2" height="2" fill="#F97316"/>
<circle cx="215.6" cy="28.6" r="2.6" fill="#F97316" opacity="0.12"/>
<text x="215.6" y="30.6" text-anchor="middle" font-size="5" fill="#1f2937" opacity="0.4">zap</text>
<text x="196.8" y="34.3" text-anchor="middle" dominant-baseline="central" font-family="Arial" font-size="11.3" font-weight="bold" fill="#1f2937">340%</text>
<rect x="180.0" y="39.4" width="33.6" height="1.5" fill="#1f2937" rx="0.75" opacity="0.25"/>
<text x="196.8" y="42.2" text-anchor="middle" font-family="Arial" font-size="1.5" fill="#1f2937" letter-spacing="1.5">GROWTH</text>
<polyline points="181.7,53.9 186.7,52.7 191.8,53.8 196.8,51.8 201.8,52.2 206.9,52.7 211.9,50.2" fill="none" stroke="#F97316" stroke-width="1" stroke-linecap="round" opacity="0.3"/>
<path d="M222,56L222,50L219,53M222,50L225,53" stroke="#059669" stroke-width="1.5" fill="none" stroke-linecap="round"/>
<text x="43.2" y="66.2" text-anchor="middle" dominant-baseline="central" font-family="Arial" font-size="2.7" fill="#9ca3af" opacity="0.7">MRR</text>
<text x="120.0" y="66.2" text-anchor="middle" dominant-baseline="central" font-family="Arial" font-size="2.7" fill="#9ca3af" opacity="0.7">Active Users</text>
<text x="196.8" y="66.2" text-anchor="middle" dominant-baseline="central" font-family="Arial" font-size="2.7" fill="#9ca3af" opacity="0.7">MoM Growth</text>
<rect x="9.6" y="72.9" width="220.8" height="51.3" fill="#1f2937" stroke="#374151" stroke-width="0.8" rx="5"/>
<line x1="36.1" y1="116.0" x2="203.9" y2="116.0" stroke="#374151" stroke-width="0.7"/>
<line x1="36.1" y1="106.8" x2="203.9" y2="106.8" stroke="#374151" stroke-width="0.3" stroke-dasharray="3,3"/>
<line x1="36.1" y1="97.5" x2="203.9" y2="97.5" stroke="#374151" stroke-width="0.3" stroke-dasharray="3,3"/>
<line x1="36.1" y1="88.3" x2="203.9" y2="88.3" stroke="#374151" stroke-width="0.3" stroke-dasharray="3,3"/>
<rect x="40.6" y="101.0" width="15.0" height="15.0" fill="#0F2137" rx="2" opacity="0.8"/>
<rect x="64.6" y="92.1" width="15.0" height="23.9" fill="#0F2137" rx="2" opacity="0.8"/>
<rect x="88.5" y="96.7" width="15.0" height="19.3" fill="#0F2137" rx="2" opacity="0.8"/>
<rect x="112.5" y="86.7" width="15.0" height="29.3" fill="#F97316" rx="2" opacity="0.8"/>
<rect x="136.5" y="94.4" width="15.0" height="21.6" fill="#0F2137" rx="2" opacity="0.8"/>
<rect x="160.5" y="90.1" width="15.0" height="25.9" fill="#0F2137" rx="2" opacity="0.8"/>
<rect x="184.4" y="85.4" width="15.0" height="30.6" fill="#F97316" rx="2" opacity="0.8"/>
<text x="120.0" y="120.2" text-anchor="middle" font-family="monospace" font-size="7" fill="#9ca3af" opacity="0.4">chart</text>
<text x="232" y="129" text-anchor="end" font-family="monospace" font-size="7.5" fill="#9ca3af" opacity="0.45">kpi_dashboard · grid · grid_kpi_over_chart · Q:8.5</text>
</g>
<text x="120" y="314" text-anchor="middle" font-family="monospace" font-size="9" fill="#6b7280">kpi_dashboard (Q:8.5)</text>
<g transform="translate(248,165)">
<rect width="240" height="135" fill="#111827" rx="6"/>
<rect x="0.5" y="0.5" width="239" height="134" fill="none" stroke="#374151" stroke-width="1" rx="6"/>
<rect x="0" y="0" width="240" height="3" fill="#F97316" rx="6"/>
<rect x="0" y="1.5" width="240" height="1.5" fill="#F97316"/>
<rect x="9.6" y="4.0" width="220.8" height="13.5" fill="#1f2937" rx="4"/><text x="120.0" y="11.5" text-anchor="middle" dominant-baseline="central" font-family="Arial" font-size="7.4" font-weight="bold" fill="#e5e7eb">We outperform incumbents on every key metric</text><rect x="9.6" y="15.6" width="77.3" height="2.5" fill="#F97316" rx="1"/>
<rect x="9.6" y="23.0" width="67.2" height="101.2" fill="#F97316" stroke="#374151" stroke-width="0.8" rx="5"/>
<rect x="9.6" y="27.0" width="3" height="93.2" fill="#F97316" rx="1.5" opacity="0.6"/>
<text x="21.6" y="41.9" font-family="Arial" font-size="1.7" fill="#1f2937">Us: Real-time, AI-native, 10x faster</text>
<rect x="86.4" y="23.0" width="67.2" height="101.2" fill="#0F2137" stroke="#374151" stroke-width="0.8" rx="5"/>
<rect x="86.4" y="27.0" width="3" height="93.2" fill="#F97316" rx="1.5" opacity="0.6"/>
<text x="98.4" y="41.9" font-family="Arial" font-size="1.7" fill="#1f2937">Competitor A: Batch processing, legacy stack</text>
<rect x="163.2" y="23.0" width="67.2" height="101.2" fill="#0F2137" stroke="#374151" stroke-width="0.8" rx="5"/>
<rect x="163.2" y="27.0" width="3" height="93.2" fill="#F97316" rx="1.5" opacity="0.6"/>
<text x="175.2" y="41.9" font-family="Arial" font-size="1.7" fill="#1f2937">Competitor B: Manual, high cost, slow</text>
<text x="232" y="129" text-anchor="end" font-family="monospace" font-size="7.5" fill="#9ca3af" opacity="0.45">comparison_columns · columns · columns_uniform · Q:7.5</text>
</g>
<text x="368" y="314" text-anchor="middle" font-family="monospace" font-size="9" fill="#6b7280">comparison_columns (Q:7.5)</text>
<g transform="translate(496,165)">
<rect width="240" height="135" fill="#111827" rx="6"/>
<rect x="0.5" y="0.5" width="239" height="134" fill="none" stroke="#374151" stroke-width="1" rx="6"/>
<rect x="0" y="0" width="240" height="3" fill="#F97316" rx="6"/>
<rect x="0" y="1.5" width="240" height="1.5" fill="#F97316"/>
<rect x="9.6" y="4.0" width="220.8" height="13.5" fill="#1f2937" rx="4"/><text x="120.0" y="11.5" text-anchor="middle" dominant-baseline="central" font-family="Arial" font-size="7.4" font-weight="bold" fill="#e5e7eb">SaaS model with 85% gross margins at scale</text><rect x="9.6" y="15.6" width="77.3" height="2.5" fill="#F97316" rx="1"/>
<rect x="9.6" y="21.6" width="132.0" height="102.6" fill="#1f2937" stroke="#374151" stroke-width="0.8" rx="5"/>
<line x1="25.4" y1="107.8" x2="125.8" y2="107.8" stroke="#374151" stroke-width="0.7"/>
<line x1="25.4" y1="89.3" x2="125.8" y2="89.3" stroke="#374151" stroke-width="0.3" stroke-dasharray="3,3"/>
<line x1="25.4" y1="70.8" x2="125.8" y2="70.8" stroke="#374151" stroke-width="0.3" stroke-dasharray="3,3"/>
<line x1="25.4" y1="52.4" x2="125.8" y2="52.4" stroke="#374151" stroke-width="0.3" stroke-dasharray="3,3"/>
<rect x="28.1" y="77.9" width="9.0" height="29.9" fill="#0F2137" rx="2" opacity="0.8"/>
<rect x="42.5" y="59.9" width="9.0" height="47.9" fill="#0F2137" rx="2" opacity="0.8"/>
<rect x="56.8" y="69.2" width="9.0" height="38.6" fill="#0F2137" rx="2" opacity="0.8"/>
<rect x="71.1" y="49.3" width="9.0" height="58.5" fill="#F97316" rx="2" opacity="0.8"/>
<rect x="85.5" y="64.6" width="9.0" height="43.2" fill="#0F2137" rx="2" opacity="0.8"/>
<rect x="99.8" y="55.9" width="9.0" height="51.9" fill="#0F2137" rx="2" opacity="0.8"/>
<rect x="114.1" y="46.6" width="9.0" height="61.2" fill="#F97316" rx="2" opacity="0.8"/>
<text x="75.6" y="120.2" text-anchor="middle" font-family="monospace" font-size="7" fill="#9ca3af" opacity="0.4">chart</text>
<rect x="148.8" y="21.6" width="81.6" height="102.6" fill="#0F2137" stroke="#374151" stroke-width="0.8" rx="5"/>
<rect x="148.8" y="25.6" width="3" height="94.6" fill="#F97316" rx="1.5" opacity="0.6"/>
<text x="160.8" y="40.8" font-family="Arial" font-size="2.0" fill="#1f2937">Pricing: $99/mo starter, $499/mo pro, enterprise custom. LTV/CAC: 5.2x</text>
<text x="232" y="129" text-anchor="end" font-family="monospace" font-size="7.5" fill="#9ca3af" opacity="0.45">chart_driven · columns · columns_uniform · Q:7.5</text>
</g>
<text x="616" y="314" text-anchor="middle" font-family="monospace" font-size="9" fill="#6b7280">chart_driven (Q:7.5)</text>
<g transform="translate(744,165)">
<rect width="240" height="135" fill="#111827" rx="6"/>
<rect x="0.5" y="0.5" width="239" height="134" fill="none" stroke="#374151" stroke-width="1" rx="6"/>
<rect x="0" y="0" width="240" height="3" fill="#F97316" rx="6"/>
<rect x="0" y="1.5" width="240" height="1.5" fill="#F97316"/>
<rect x="9.6" y="4.0" width="220.8" height="13.5" fill="#1f2937" rx="4"/><text x="120.0" y="11.5" text-anchor="middle" dominant-baseline="central" font-family="Arial" font-size="7.4" font-weight="bold" fill="#e5e7eb">Efficient go-to-market with 12% conversion</text><rect x="9.6" y="15.6" width="77.3" height="2.5" fill="#F97316" rx="1"/>
<rect x="24.0" y="23.0" width="192.0" height="21.6" fill="#0F2137" stroke="#374151" stroke-width="0.8" rx="5"/>
<rect x="24.0" y="27.0" width="3" height="13.6" fill="#F97316" rx="1.5" opacity="0.6"/>
<rect x="36.0" y="47.2" width="168.0" height="21.6" fill="#0F2137" stroke="#374151" stroke-width="0.8" rx="5"/>
<rect x="36.0" y="51.2" width="3" height="13.6" fill="#F97316" rx="1.5" opacity="0.6"/>
<rect x="48.0" y="71.5" width="144.0" height="21.6" fill="#1f2937" stroke="#374151" stroke-width="0.8" rx="5"/>
<rect x="48.0" y="75.5" width="3" height="13.6" fill="#F97316" rx="1.5" opacity="0.6"/>
<rect x="60.0" y="95.8" width="120.0" height="21.6" fill="#F97316" stroke="#374151" stroke-width="0.8" rx="5"/>
<rect x="60.0" y="99.8" width="3" height="13.6" fill="#F97316" rx="1.5" opacity="0.6"/>
<text x="232" y="129" text-anchor="end" font-family="monospace" font-size="7.5" fill="#9ca3af" opacity="0.45">funnel · stacked · stacked_uniform · Q:7.0</text>
</g>
<text x="864" y="314" text-anchor="middle" font-family="monospace" font-size="9" fill="#6b7280">funnel (Q:7.0)</text>
<g transform="translate(0,330)">
<rect width="240" height="135" fill="#111827" rx="6"/>
<rect x="0.5" y="0.5" width="239" height="134" fill="none" stroke="#374151" stroke-width="1" rx="6"/>
<rect x="0" y="0" width="240" height="3" fill="#F97316" rx="6"/>
<rect x="0" y="1.5" width="240" height="1.5" fill="#F97316"/>
<rect x="9.6" y="4.0" width="220.8" height="13.5" fill="#1f2937" rx="4"/><text x="120.0" y="11.5" text-anchor="middle" dominant-baseline="central" font-family="Arial" font-size="7.4" font-weight="bold" fill="#e5e7eb">Experienced team with domain expertise</text><rect x="9.6" y="15.6" width="77.3" height="2.5" fill="#F97316" rx="1"/>
<rect x="9.6" y="23.0" width="67.2" height="101.2" fill="#F97316" stroke="#374151" stroke-width="0.8" rx="5"/>
<text x="21.6" y="41.9" font-family="Arial" font-size="1.7" fill="#1f2937">CEO: 15 years industry, prev. VP at BigCo</text>
<rect x="86.4" y="23.0" width="67.2" height="101.2" fill="#0F2137" stroke="#374151" stroke-width="0.8" rx="5"/>
<text x="98.4" y="41.9" font-family="Arial" font-size="1.7" fill="#1f2937">CTO: Ex-Google, built systems at scale</text>
<rect x="163.2" y="23.0" width="67.2" height="101.2" fill="#0F2137" stroke="#374151" stroke-width="0.8" rx="5"/>
<text x="175.2" y="41.9" font-family="Arial" font-size="1.7" fill="#1f2937">COO: Operations expert, grew prev. startup 10x</text>
<text x="232" y="129" text-anchor="end" font-family="monospace" font-size="7.5" fill="#9ca3af" opacity="0.45">comparison_columns · columns · columns_uniform · Q:7.5</text>
</g>
<text x="120" y="479" text-anchor="middle" font-family="monospace" font-size="9" fill="#6b7280">comparison_columns (Q:7.5)</text>
<g transform="translate(248,330)">
<rect width="240" height="135" fill="#111827" rx="6"/>
<rect x="0.5" y="0.5" width="239" height="134" fill="none" stroke="#374151" stroke-width="1" rx="6"/>
<rect x="0" y="0" width="240" height="3" fill="#F97316" rx="6"/>
<rect x="0" y="1.5" width="240" height="1.5" fill="#F97316"/>
<rect x="9.6" y="4.0" width="220.8" height="16.2" fill="#1f2937" rx="4"/><text x="120.0" y="13.0" text-anchor="middle" dominant-baseline="central" font-family="Arial" font-size="7.7" font-weight="bold" fill="#e5e7eb">Raising $3M Series A to accelerate growth</text><rect x="9.6" y="18.2" width="77.3" height="2.5" fill="#F97316" rx="1"/>
<rect x="19.2" y="27.0" width="201.6" height="94.5" fill="#F97316" stroke="#374151" stroke-width="0.8" rx="5"/>
<rect x="19.2" y="31.0" width="3" height="86.5" fill="#F97316" rx="1.5" opacity="0.6"/>
<text x="31.3" y="44.7" font-family="Arial" font-size="5.0" fill="#1f2937">Use of funds: 50% Engineering (AI/ML team), 30% Sales &amp; Marketing, 20%</text>
<text x="31.3" y="56.5" font-family="Arial" font-size="5.0" fill="#1f2937">Operations. 18-month runway to $2M ARR.</text>
<text x="232" y="129" text-anchor="end" font-family="monospace" font-size="7.5" fill="#9ca3af" opacity="0.45">conclusion_cta · stacked · stacked_uniform · Q:8.0</text>
</g>
<text x="368" y="479" text-anchor="middle" font-family="monospace" font-size="9" fill="#6b7280">conclusion_cta (Q:8.0)</text>
<g transform="translate(496,330)">
<rect width="240" height="135" fill="#111827" rx="6"/>
<rect x="0.5" y="0.5" width="239" height="134" fill="none" stroke="#374151" stroke-width="1" rx="6"/>
<rect x="0" y="0" width="240" height="3" fill="#F97316" rx="6"/>
<rect x="0" y="1.5" width="240" height="1.5" fill="#F97316"/>
<rect x="36.0" y="40.5" width="168.0" height="21.6" fill="#1f2937" rx="4"/><text x="120.0" y="52.4" text-anchor="middle" dominant-baseline="central" font-family="Arial" font-size="5.9" font-weight="bold" fill="#e5e7eb">Thank You</text><rect x="36.0" y="60.1" width="58.8" height="2.5" fill="#F97316" rx="1"/>
<text x="120.0" y="76.7" text-anchor="middle" dominant-baseline="central" font-family="Arial" font-size="5.8" fill="#9ca3af" opacity="0.7">founder@company.com · com</text>
<text x="232" y="129" text-anchor="end" font-family="monospace" font-size="7.5" fill="#9ca3af" opacity="0.45">thank_you · single · single_uniform · Q:8.0</text>
</g>
<text x="616" y="479" text-anchor="middle" font-family="monospace" font-size="9" fill="#6b7280">thank_you (Q:8.0)</text>
</svg>